<svg xmlns="http://www.w3.org/2000/svg" xmlns:xlink="http://www.w3.org/1999/xlink" width="500" zoomAndPan="magnify" viewBox="0 0 375 374.999991" height="500" preserveAspectRatio="xMidYMid meet" version="1.0"><defs><g/><clipPath id="faa17fe1a2"><path d="M 16 227.414062 L 99.867188 227.414062 L 99.867188 337.664062 L 16 337.664062 Z M 16 227.414062 " clip-rule="nonzero"/></clipPath><clipPath id="665bfa90ab"><path d="M 129 4.375 L 180 4.375 L 180 55 L 129 55 Z M 129 4.375 " clip-rule="nonzero"/></clipPath><clipPath id="e0c41961a7"><path d="M 284 15 L 358.753906 15 L 358.753906 91 L 284 91 Z M 284 15 " clip-rule="nonzero"/></clipPath><clipPath id="e8dc1e4b56"><path d="M 80 177 L 131 177 L 131 227.125 L 80 227.125 Z M 80 177 " clip-rule="nonzero"/></clipPath><clipPath id="4fee35c489"><path d="M 22.753906 128 L 57 128 L 57 162 L 22.753906 162 Z M 22.753906 128 " clip-rule="nonzero"/></clipPath></defs><path fill="#79cee8" d="M 61.332031 279.132812 C 61.332031 278.699219 61.375 278.265625 61.460938 277.835938 C 61.546875 277.410156 61.671875 276.992188 61.839844 276.589844 C 62.007812 276.1875 62.210938 275.804688 62.453125 275.441406 C 62.695312 275.078125 62.972656 274.742188 63.28125 274.433594 C 63.589844 274.125 63.925781 273.847656 64.289062 273.605469 C 64.652344 273.363281 65.035156 273.160156 65.4375 272.992188 C 65.839844 272.824219 66.257812 272.699219 66.683594 272.613281 C 67.113281 272.527344 67.546875 272.484375 67.984375 272.484375 C 68.417969 272.484375 68.851562 272.527344 69.28125 272.613281 C 69.707031 272.699219 70.125 272.824219 70.527344 272.992188 C 70.929688 273.160156 71.3125 273.363281 71.675781 273.605469 C 72.039062 273.847656 72.375 274.125 72.683594 274.433594 C 72.992188 274.742188 73.269531 275.078125 73.511719 275.441406 C 73.753906 275.804688 73.957031 276.1875 74.125 276.589844 C 74.292969 276.992188 74.417969 277.410156 74.503906 277.835938 C 74.589844 278.265625 74.632812 278.699219 74.632812 279.132812 C 74.632812 279.570312 74.589844 280.003906 74.503906 280.429688 C 74.417969 280.859375 74.292969 281.273438 74.125 281.679688 C 73.957031 282.082031 73.753906 282.464844 73.511719 282.828125 C 73.269531 283.191406 72.992188 283.527344 72.683594 283.835938 C 72.375 284.144531 72.039062 284.417969 71.675781 284.664062 C 71.3125 284.90625 70.929688 285.109375 70.527344 285.277344 C 70.125 285.445312 69.707031 285.570312 69.28125 285.65625 C 68.851562 285.738281 68.417969 285.78125 67.984375 285.78125 C 67.546875 285.78125 67.113281 285.738281 66.683594 285.65625 C 66.257812 285.570312 65.839844 285.445312 65.4375 285.277344 C 65.035156 285.109375 64.652344 284.90625 64.289062 284.664062 C 63.925781 284.417969 63.589844 284.144531 63.28125 283.835938 C 62.972656 283.527344 62.695312 283.191406 62.453125 282.828125 C 62.210938 282.464844 62.007812 282.082031 61.839844 281.679688 C 61.671875 281.273438 61.546875 280.859375 61.460938 280.429688 C 61.375 280.003906 61.332031 279.570312 61.332031 279.132812 Z M 51.539062 275.632812 C 51.828125 275.632812 52.113281 275.605469 52.398438 275.546875 C 52.683594 275.492188 52.960938 275.40625 53.226562 275.296875 C 53.492188 275.183594 53.75 275.050781 53.988281 274.886719 C 54.230469 274.726562 54.453125 274.542969 54.65625 274.339844 C 54.863281 274.136719 55.046875 273.914062 55.207031 273.671875 C 55.367188 273.429688 55.503906 273.175781 55.613281 272.910156 C 55.722656 272.640625 55.808594 272.367188 55.863281 272.082031 C 55.921875 271.796875 55.949219 271.511719 55.949219 271.222656 C 55.949219 270.933594 55.921875 270.644531 55.863281 270.359375 C 55.808594 270.078125 55.722656 269.800781 55.613281 269.535156 C 55.503906 269.265625 55.367188 269.011719 55.207031 268.769531 C 55.046875 268.53125 54.863281 268.308594 54.65625 268.101562 C 54.453125 267.898438 54.230469 267.714844 53.988281 267.554688 C 53.75 267.394531 53.492188 267.257812 53.226562 267.148438 C 52.960938 267.035156 52.683594 266.953125 52.398438 266.894531 C 52.113281 266.839844 51.828125 266.8125 51.539062 266.8125 C 51.25 266.8125 50.960938 266.839844 50.679688 266.894531 C 50.394531 266.953125 50.117188 267.035156 49.851562 267.148438 C 49.582031 267.257812 49.328125 267.394531 49.089844 267.554688 C 48.847656 267.714844 48.625 267.898438 48.421875 268.101562 C 48.214844 268.308594 48.03125 268.53125 47.871094 268.769531 C 47.710938 269.011719 47.574219 269.265625 47.464844 269.535156 C 47.351562 269.800781 47.269531 270.078125 47.214844 270.359375 C 47.15625 270.644531 47.128906 270.933594 47.128906 271.222656 C 47.128906 271.511719 47.15625 271.796875 47.214844 272.082031 C 47.269531 272.367188 47.351562 272.640625 47.464844 272.910156 C 47.574219 273.175781 47.710938 273.429688 47.871094 273.671875 C 48.03125 273.914062 48.214844 274.136719 48.421875 274.339844 C 48.625 274.542969 48.847656 274.726562 49.089844 274.886719 C 49.328125 275.050781 49.582031 275.183594 49.851562 275.296875 C 50.117188 275.40625 50.394531 275.492188 50.679688 275.546875 C 50.960938 275.605469 51.25 275.632812 51.539062 275.632812 Z M 49.992188 295.835938 C 50.464844 295.835938 50.929688 295.792969 51.390625 295.699219 C 51.855469 295.609375 52.300781 295.472656 52.738281 295.292969 C 53.171875 295.113281 53.585938 294.890625 53.976562 294.628906 C 54.367188 294.367188 54.730469 294.070312 55.0625 293.738281 C 55.398438 293.402344 55.695312 293.042969 55.957031 292.648438 C 56.21875 292.257812 56.4375 291.84375 56.617188 291.410156 C 56.800781 290.976562 56.933594 290.527344 57.027344 290.066406 C 57.117188 289.601562 57.164062 289.136719 57.164062 288.664062 C 57.164062 288.195312 57.117188 287.726562 57.027344 287.265625 C 56.933594 286.804688 56.800781 286.355469 56.617188 285.921875 C 56.4375 285.484375 56.21875 285.074219 55.957031 284.679688 C 55.695312 284.289062 55.398438 283.925781 55.0625 283.59375 C 54.730469 283.261719 54.367188 282.964844 53.976562 282.703125 C 53.585938 282.441406 53.171875 282.21875 52.738281 282.039062 C 52.300781 281.859375 51.855469 281.722656 51.390625 281.632812 C 50.929688 281.539062 50.464844 281.492188 49.992188 281.492188 C 49.523438 281.492188 49.054688 281.539062 48.59375 281.632812 C 48.132812 281.722656 47.683594 281.859375 47.246094 282.039062 C 46.8125 282.21875 46.398438 282.441406 46.007812 282.703125 C 45.617188 282.964844 45.253906 283.261719 44.921875 283.59375 C 44.589844 283.925781 44.289062 284.289062 44.027344 284.679688 C 43.769531 285.070312 43.546875 285.484375 43.367188 285.921875 C 43.1875 286.355469 43.050781 286.804688 42.957031 287.265625 C 42.867188 287.726562 42.820312 288.195312 42.820312 288.664062 C 42.820312 289.136719 42.867188 289.601562 42.960938 290.0625 C 43.050781 290.527344 43.1875 290.972656 43.367188 291.410156 C 43.550781 291.84375 43.769531 292.257812 44.03125 292.648438 C 44.292969 293.039062 44.589844 293.402344 44.921875 293.734375 C 45.257812 294.066406 45.617188 294.363281 46.011719 294.625 C 46.402344 294.886719 46.816406 295.109375 47.25 295.289062 C 47.683594 295.46875 48.132812 295.605469 48.59375 295.699219 C 49.054688 295.789062 49.523438 295.835938 49.992188 295.835938 Z M 86.835938 291.511719 C 86.773438 291.121094 86.644531 290.75 86.449219 290.402344 C 86.253906 290.058594 86.003906 289.757812 85.703125 289.5 C 85.402344 289.242188 85.0625 289.042969 84.691406 288.90625 C 84.320312 288.765625 83.933594 288.699219 83.539062 288.695312 L 62.691406 288.695312 C 62.46875 288.699219 62.273438 288.777344 62.113281 288.933594 C 61.949219 289.089844 61.863281 289.28125 61.851562 289.507812 C 61.800781 290.25 61.679688 290.984375 61.488281 291.703125 C 61.296875 292.425781 61.042969 293.121094 60.71875 293.792969 C 60.398438 294.464844 60.015625 295.101562 59.578125 295.703125 C 59.136719 296.304688 58.640625 296.859375 58.097656 297.367188 C 57.550781 297.875 56.964844 298.328125 56.332031 298.722656 C 55.703125 299.121094 55.039062 299.457031 54.347656 299.730469 C 53.652344 300.003906 52.941406 300.207031 52.207031 300.347656 C 51.476562 300.484375 50.738281 300.554688 49.992188 300.554688 C 49.246094 300.554688 48.507812 300.484375 47.777344 300.347656 C 47.042969 300.207031 46.332031 300.003906 45.636719 299.730469 C 44.945312 299.457031 44.28125 299.121094 43.652344 298.722656 C 43.023438 298.328125 42.433594 297.875 41.886719 297.367188 C 41.34375 296.859375 40.851562 296.304688 40.410156 295.703125 C 39.96875 295.101562 39.585938 294.464844 39.265625 293.792969 C 38.945312 293.121094 38.6875 292.425781 38.496094 291.703125 C 38.308594 290.984375 38.1875 290.25 38.132812 289.507812 C 38.121094 289.28125 38.035156 289.089844 37.875 288.933594 C 37.710938 288.777344 37.519531 288.699219 37.292969 288.695312 L 33.296875 288.695312 C 32.902344 288.695312 32.519531 288.761719 32.148438 288.898438 C 31.78125 289.035156 31.445312 289.226562 31.140625 289.480469 C 30.839844 289.734375 30.59375 290.035156 30.398438 290.375 C 30.199219 290.71875 30.070312 291.082031 30.003906 291.46875 C 29.648438 293.566406 29.527344 295.671875 29.632812 297.792969 C 30.355469 312.230469 41.945312 324.066406 56.367188 325.0625 C 57.449219 325.140625 58.535156 325.15625 59.621094 325.109375 C 60.710938 325.0625 61.789062 324.953125 62.863281 324.785156 C 63.9375 324.617188 65 324.386719 66.046875 324.101562 C 67.097656 323.8125 68.125 323.464844 69.132812 323.058594 C 70.144531 322.65625 71.125 322.195312 72.082031 321.679688 C 73.039062 321.160156 73.964844 320.59375 74.859375 319.972656 C 75.75 319.351562 76.605469 318.683594 77.421875 317.964844 C 78.238281 317.25 79.011719 316.488281 79.746094 315.683594 C 80.476562 314.878906 81.160156 314.035156 81.792969 313.152344 C 82.429688 312.269531 83.015625 311.355469 83.546875 310.40625 C 84.078125 309.457031 84.554688 308.480469 84.976562 307.480469 C 85.398438 306.476562 85.761719 305.457031 86.070312 304.410156 C 86.375 303.367188 86.621094 302.3125 86.808594 301.238281 C 86.996094 300.167969 87.121094 299.089844 87.183594 298.003906 C 87.25 296.917969 87.253906 295.835938 87.195312 294.75 C 87.136719 293.664062 87.019531 292.582031 86.835938 291.511719 Z M 86.835938 291.511719 " fill-opacity="1" fill-rule="nonzero"/><g clip-path="url(#faa17fe1a2)"><path fill="#3368dd" d="M 73.734375 232.144531 C 74.023438 232.144531 74.308594 232.171875 74.59375 232.234375 C 74.875 232.292969 75.148438 232.382812 75.414062 232.5 C 75.675781 232.617188 75.925781 232.757812 76.160156 232.929688 C 76.394531 233.097656 76.609375 233.289062 76.800781 233.503906 C 76.996094 233.714844 77.164062 233.949219 77.3125 234.199219 C 77.457031 234.449219 77.574219 234.710938 77.664062 234.984375 C 77.753906 235.257812 77.816406 235.539062 77.847656 235.824219 C 77.878906 236.113281 77.882812 236.398438 77.855469 236.6875 C 77.648438 238.839844 75.71875 240.417969 73.558594 240.417969 L 73.144531 240.417969 C 72.75 240.417969 72.367188 240.496094 72 240.644531 C 71.636719 240.796875 71.3125 241.015625 71.03125 241.292969 C 70.753906 241.574219 70.535156 241.898438 70.386719 242.261719 C 70.234375 242.628906 70.15625 243.007812 70.15625 243.40625 L 70.15625 258.601562 C 70.160156 259.214844 70.332031 259.773438 70.675781 260.277344 C 71.023438 260.78125 71.480469 261.148438 72.050781 261.371094 C 73.039062 261.761719 74.011719 262.199219 74.964844 262.675781 C 75.917969 263.152344 76.851562 263.667969 77.757812 264.226562 C 78.667969 264.785156 79.550781 265.378906 80.40625 266.011719 C 81.265625 266.644531 82.09375 267.316406 82.894531 268.019531 C 83.691406 268.726562 84.460938 269.464844 85.195312 270.234375 C 85.929688 271.007812 86.632812 271.808594 87.296875 272.640625 C 87.964844 273.472656 88.59375 274.332031 89.183594 275.21875 C 89.777344 276.105469 90.328125 277.015625 90.84375 277.949219 C 91.355469 278.882812 91.828125 279.839844 92.257812 280.8125 C 92.691406 281.789062 93.078125 282.78125 93.421875 283.789062 C 93.769531 284.796875 94.070312 285.820312 94.324219 286.855469 C 94.582031 287.890625 94.792969 288.933594 94.960938 289.984375 C 95.125 291.039062 95.246094 292.097656 95.324219 293.160156 C 95.398438 294.222656 95.425781 295.289062 95.410156 296.355469 C 95.394531 297.417969 95.328125 298.484375 95.222656 299.542969 C 95.113281 300.601562 94.957031 301.65625 94.757812 302.703125 C 94.558594 303.75 94.3125 304.789062 94.023438 305.8125 C 93.734375 306.839844 93.402344 307.851562 93.023438 308.847656 C 92.648438 309.84375 92.226562 310.824219 91.765625 311.785156 C 91.304688 312.746094 90.800781 313.683594 90.257812 314.601562 C 89.71875 315.519531 89.136719 316.414062 88.515625 317.28125 C 87.894531 318.148438 87.238281 318.984375 86.546875 319.796875 C 85.855469 320.605469 85.128906 321.386719 84.367188 322.132812 C 83.609375 322.882812 82.820312 323.59375 81.996094 324.273438 C 81.175781 324.953125 80.328125 325.597656 79.449219 326.203125 C 78.574219 326.808594 77.671875 327.375 76.746094 327.902344 C 75.820312 328.429688 74.871094 328.917969 73.902344 329.363281 C 72.9375 329.8125 71.949219 330.214844 70.949219 330.574219 C 69.945312 330.9375 68.929688 331.253906 67.898438 331.527344 C 66.867188 331.800781 65.828125 332.027344 64.777344 332.210938 C 63.726562 332.394531 62.671875 332.53125 61.609375 332.625 C 60.546875 332.714844 59.484375 332.761719 58.417969 332.761719 C 57.929688 332.761719 57.433594 332.753906 56.941406 332.734375 C 37.945312 331.996094 22.410156 316.640625 21.464844 297.652344 C 21.367188 295.730469 21.417969 293.816406 21.621094 291.902344 C 21.820312 289.992188 22.167969 288.109375 22.664062 286.25 C 23.15625 284.394531 23.792969 282.585938 24.570312 280.828125 C 25.34375 279.066406 26.253906 277.378906 27.292969 275.761719 C 28.332031 274.144531 29.488281 272.617188 30.765625 271.183594 C 32.042969 269.746094 33.425781 268.417969 34.910156 267.195312 C 36.394531 265.976562 37.960938 264.875 39.617188 263.898438 C 41.273438 262.921875 42.996094 262.082031 44.78125 261.371094 C 45.351562 261.148438 45.808594 260.785156 46.15625 260.277344 C 46.5 259.773438 46.675781 259.214844 46.675781 258.601562 L 46.675781 243.40625 C 46.675781 243.007812 46.601562 242.628906 46.449219 242.261719 C 46.296875 241.898438 46.082031 241.574219 45.800781 241.292969 C 45.519531 241.015625 45.199219 240.796875 44.832031 240.644531 C 44.464844 240.496094 44.085938 240.417969 43.691406 240.417969 C 43.402344 240.417969 43.113281 240.390625 42.832031 240.328125 C 42.550781 240.269531 42.277344 240.179688 42.011719 240.0625 C 41.75 239.945312 41.5 239.804688 41.265625 239.632812 C 41.03125 239.464844 40.816406 239.273438 40.625 239.058594 C 40.429688 238.84375 40.257812 238.613281 40.113281 238.363281 C 39.96875 238.113281 39.851562 237.851562 39.761719 237.578125 C 39.667969 237.304688 39.609375 237.023438 39.578125 236.738281 C 39.542969 236.449219 39.542969 236.164062 39.570312 235.875 C 39.777344 233.722656 41.707031 232.144531 43.867188 232.144531 L 73.734375 232.144531 M 73.734375 227.425781 L 43.867188 227.425781 C 39.253906 227.425781 35.300781 230.941406 34.875 235.425781 C 34.820312 235.96875 34.820312 236.511719 34.867188 237.050781 C 34.914062 237.59375 35.011719 238.128906 35.15625 238.652344 C 35.300781 239.175781 35.496094 239.683594 35.734375 240.171875 C 35.972656 240.660156 36.253906 241.125 36.578125 241.558594 C 36.902344 241.996094 37.265625 242.402344 37.664062 242.769531 C 38.0625 243.140625 38.492188 243.472656 38.953125 243.761719 C 39.410156 244.054688 39.894531 244.300781 40.398438 244.503906 C 40.90625 244.703125 41.425781 244.859375 41.957031 244.964844 L 41.957031 257.433594 C 40.011719 258.269531 38.140625 259.25 36.34375 260.371094 C 34.546875 261.492188 32.847656 262.742188 31.242188 264.121094 C 29.636719 265.503906 28.144531 266.996094 26.765625 268.601562 C 25.386719 270.210938 24.136719 271.914062 23.015625 273.710938 C 21.894531 275.507812 20.917969 277.378906 20.082031 279.324219 C 19.25 281.269531 18.566406 283.269531 18.035156 285.316406 C 17.503906 287.367188 17.132812 289.445312 16.917969 291.554688 C 16.703125 293.660156 16.648438 295.769531 16.753906 297.886719 C 17.816406 319.238281 35.386719 336.617188 56.761719 337.449219 C 57.3125 337.46875 57.867188 337.480469 58.417969 337.480469 C 81.417969 337.480469 100.132812 318.765625 100.132812 295.765625 C 100.132812 293.734375 99.984375 291.71875 99.691406 289.710938 C 99.394531 287.703125 98.957031 285.726562 98.375 283.785156 C 97.792969 281.839844 97.070312 279.949219 96.210938 278.113281 C 95.355469 276.273438 94.367188 274.507812 93.25 272.8125 C 92.132812 271.117188 90.902344 269.515625 89.550781 268 C 88.199219 266.484375 86.746094 265.078125 85.191406 263.777344 C 83.636719 262.472656 81.992188 261.292969 80.265625 260.230469 C 78.535156 259.167969 76.738281 258.234375 74.875 257.433594 L 74.875 245.039062 C 78.902344 244.449219 82.164062 241.1875 82.550781 237.136719 C 82.609375 236.519531 82.605469 235.90625 82.535156 235.292969 C 82.46875 234.679688 82.335938 234.078125 82.140625 233.492188 C 81.945312 232.90625 81.695312 232.347656 81.382812 231.8125 C 81.070312 231.28125 80.707031 230.785156 80.292969 230.328125 C 79.878906 229.871094 79.417969 229.460938 78.917969 229.101562 C 78.417969 228.738281 77.886719 228.433594 77.320312 228.183594 C 76.757812 227.933594 76.171875 227.746094 75.566406 227.617188 C 74.964844 227.488281 74.351562 227.425781 73.734375 227.425781 Z M 73.734375 227.425781 " fill-opacity="1" fill-rule="nonzero"/></g><g clip-path="url(#665bfa90ab)"><path fill="#3368dd" d="M 167.480469 54.199219 L 141.097656 54.199219 C 134.632812 54.199219 129.375 48.9375 129.375 42.472656 L 129.375 16.101562 C 129.375 9.636719 134.632812 4.375 141.097656 4.375 L 167.480469 4.375 C 173.945312 4.375 179.203125 9.636719 179.203125 16.101562 L 179.203125 42.480469 C 179.195312 48.9375 173.945312 54.199219 167.480469 54.199219 Z M 141.097656 7.054688 C 136.113281 7.054688 132.0625 11.105469 132.0625 16.09375 L 132.0625 42.472656 C 132.0625 47.460938 136.113281 51.511719 141.097656 51.511719 L 167.480469 51.511719 C 172.464844 51.511719 176.515625 47.460938 176.515625 42.472656 L 176.515625 16.101562 C 176.515625 11.117188 172.464844 7.0625 167.480469 7.0625 L 141.097656 7.0625 Z M 141.097656 7.054688 " fill-opacity="1" fill-rule="nonzero"/></g><path fill="#3368dd" d="M 254.382812 192.96875 L 205.648438 192.96875 C 194.335938 192.96875 185.132812 183.761719 185.132812 172.453125 L 185.132812 123.714844 C 185.132812 112.402344 194.335938 103.199219 205.648438 103.199219 L 254.382812 103.199219 C 265.695312 103.199219 274.898438 112.402344 274.898438 123.714844 L 274.898438 172.453125 C 274.898438 183.761719 265.695312 192.96875 254.382812 192.96875 Z M 205.648438 105.878906 C 195.816406 105.878906 187.808594 113.875 187.808594 123.714844 L 187.808594 172.453125 C 187.808594 182.28125 195.808594 190.289062 205.648438 190.289062 L 254.382812 190.289062 C 264.214844 190.289062 272.222656 182.289062 272.222656 172.453125 L 272.222656 123.714844 C 272.222656 113.882812 264.222656 105.878906 254.382812 105.878906 Z M 205.648438 105.878906 " fill-opacity="1" fill-rule="nonzero"/><g clip-path="url(#e0c41961a7)"><path fill="#3368dd" d="M 341.570312 90.023438 L 301.472656 90.023438 C 292.039062 90.023438 284.359375 82.339844 284.359375 72.90625 L 284.359375 32.8125 C 284.359375 23.375 292.039062 15.695312 301.472656 15.695312 L 341.570312 15.695312 C 351.003906 15.695312 358.6875 23.375 358.6875 32.8125 L 358.6875 72.90625 C 358.6875 82.339844 351.003906 90.023438 341.570312 90.023438 Z M 301.472656 18.375 C 293.511719 18.375 287.039062 24.847656 287.039062 32.800781 L 287.039062 72.90625 C 287.039062 80.871094 293.511719 87.34375 301.472656 87.34375 L 341.570312 87.34375 C 349.535156 87.34375 356.007812 80.871094 356.007812 72.90625 L 356.007812 32.8125 C 356.007812 24.855469 349.535156 18.382812 341.570312 18.382812 L 301.472656 18.382812 Z M 301.472656 18.375 " fill-opacity="1" fill-rule="nonzero"/></g><path fill="#3368dd" d="M 152.964844 136.285156 L 135.699219 136.285156 C 131.214844 136.285156 127.566406 132.636719 127.566406 128.152344 L 127.566406 110.890625 C 127.566406 106.40625 131.214844 102.757812 135.699219 102.757812 L 152.964844 102.757812 C 157.445312 102.757812 161.09375 106.40625 161.09375 110.890625 L 161.09375 128.152344 C 161.09375 132.636719 157.445312 136.285156 152.964844 136.285156 Z M 135.699219 105.445312 C 132.695312 105.445312 130.246094 107.894531 130.246094 110.898438 L 130.246094 128.164062 C 130.246094 131.167969 132.695312 133.613281 135.699219 133.613281 L 152.964844 133.613281 C 155.96875 133.613281 158.414062 131.167969 158.414062 128.164062 L 158.414062 110.898438 C 158.414062 107.894531 155.96875 105.445312 152.964844 105.445312 Z M 135.699219 105.445312 " fill-opacity="1" fill-rule="nonzero"/><g clip-path="url(#e8dc1e4b56)"><path fill="#3368dd" d="M 118.53125 227.398438 L 92.148438 227.398438 C 85.683594 227.398438 80.425781 222.140625 80.425781 215.675781 L 80.425781 189.292969 C 80.425781 182.828125 85.683594 177.570312 92.148438 177.570312 L 118.53125 177.570312 C 124.996094 177.570312 130.253906 182.828125 130.253906 189.292969 L 130.253906 215.675781 C 130.246094 222.140625 124.996094 227.398438 118.53125 227.398438 Z M 92.148438 180.257812 C 87.164062 180.257812 83.113281 184.308594 83.113281 189.292969 L 83.113281 215.675781 C 83.113281 220.660156 87.164062 224.710938 92.148438 224.710938 L 118.53125 224.710938 C 123.515625 224.710938 127.566406 220.660156 127.566406 215.675781 L 127.566406 189.292969 C 127.566406 184.308594 123.515625 180.257812 118.53125 180.257812 Z M 92.148438 180.257812 " fill-opacity="1" fill-rule="nonzero"/></g><g clip-path="url(#4fee35c489)"><path fill="#3368dd" d="M 48.257812 161.730469 L 30.992188 161.730469 C 26.507812 161.730469 22.863281 158.085938 22.863281 153.601562 L 22.863281 136.335938 C 22.863281 131.851562 26.507812 128.207031 30.992188 128.207031 L 48.257812 128.207031 C 52.738281 128.207031 56.386719 131.851562 56.386719 136.335938 L 56.386719 153.601562 C 56.386719 158.085938 52.738281 161.730469 48.257812 161.730469 Z M 30.992188 130.882812 C 27.988281 130.882812 25.539062 133.332031 25.539062 136.335938 L 25.539062 153.601562 C 25.539062 156.605469 27.988281 159.054688 30.992188 159.054688 L 48.257812 159.054688 C 51.261719 159.054688 53.710938 156.605469 53.710938 153.601562 L 53.710938 136.335938 C 53.710938 133.332031 51.261719 130.882812 48.257812 130.882812 Z M 30.992188 130.882812 " fill-opacity="1" fill-rule="nonzero"/></g><g fill="#3368dd" fill-opacity="1"><g transform="translate(109.728557, 306.612402)"><g><path d="M 3.21875 0 L 3.21875 -37.203125 L 28.53125 -37.203125 L 28.53125 -30.8125 L 10.859375 -30.8125 L 10.859375 -21.921875 L 27.1875 -21.921875 L 27.1875 -15.65625 L 10.859375 -15.65625 L 10.859375 -6.390625 L 28.5625 -6.390625 L 28.5625 0 Z M 3.21875 0 "/></g></g></g><g fill="#3368dd" fill-opacity="1"><g transform="translate(144.868187, 306.612402)"><g><path d="M 2.84375 0 L 2.84375 -5.515625 L 16.125 -17.71875 C 17.238281 -18.800781 18.195312 -19.78125 19 -20.65625 C 19.800781 -21.53125 20.414062 -22.40625 20.84375 -23.28125 C 21.28125 -24.15625 21.5 -25.109375 21.5 -26.140625 C 21.5 -27.265625 21.25 -28.234375 20.75 -29.046875 C 20.25 -29.867188 19.5625 -30.5 18.6875 -30.9375 C 17.8125 -31.382812 16.800781 -31.609375 15.65625 -31.609375 C 14.46875 -31.609375 13.429688 -31.359375 12.546875 -30.859375 C 11.671875 -30.367188 10.988281 -29.664062 10.5 -28.75 C 10.019531 -27.84375 9.78125 -26.753906 9.78125 -25.484375 L 2.546875 -25.484375 C 2.546875 -27.960938 3.097656 -30.117188 4.203125 -31.953125 C 5.304688 -33.785156 6.84375 -35.203125 8.8125 -36.203125 C 10.789062 -37.210938 13.085938 -37.71875 15.703125 -37.71875 C 18.316406 -37.71875 20.601562 -37.25 22.5625 -36.3125 C 24.53125 -35.375 26.0625 -34.066406 27.15625 -32.390625 C 28.257812 -30.710938 28.8125 -28.785156 28.8125 -26.609375 C 28.8125 -25.148438 28.523438 -23.734375 27.953125 -22.359375 C 27.390625 -20.992188 26.429688 -19.515625 25.078125 -17.921875 C 23.734375 -16.328125 21.878906 -14.457031 19.515625 -12.3125 L 13.375 -6.46875 L 13.375 -6.234375 L 29.234375 -6.234375 L 29.234375 0 Z M 2.84375 0 "/></g></g></g><g fill="#3368dd" fill-opacity="1"><g transform="translate(180.781564, 306.612402)"><g><path d="M 3.21875 0 L 3.21875 -37.203125 L 28.53125 -37.203125 L 28.53125 -30.8125 L 10.859375 -30.8125 L 10.859375 -21.921875 L 27.1875 -21.921875 L 27.1875 -15.65625 L 10.859375 -15.65625 L 10.859375 -6.390625 L 28.5625 -6.390625 L 28.5625 0 Z M 3.21875 0 "/></g></g></g><g fill="#3368dd" fill-opacity="1"><g transform="translate(215.921195, 306.612402)"><g/></g></g><g fill="#3368dd" fill-opacity="1"><g transform="translate(231.866922, 306.612402)"><g><path d="M 3.21875 0 L 3.21875 -37.203125 L 10.859375 -37.203125 L 10.859375 -6.390625 L 27.109375 -6.390625 L 27.109375 0 Z M 3.21875 0 "/></g></g></g><g fill="#3368dd" fill-opacity="1"><g transform="translate(264.760193, 306.612402)"><g><path d="M 1 0 L 13.8125 -37.203125 L 23.734375 -37.203125 L 36.796875 0 L 28.3125 0 L 22.375 -17.96875 C 21.65625 -20.300781 20.925781 -22.816406 20.1875 -25.515625 C 19.445312 -28.222656 18.660156 -31.203125 17.828125 -34.453125 L 19.578125 -34.453125 C 18.753906 -31.203125 17.992188 -28.21875 17.296875 -25.5 C 16.597656 -22.78125 15.898438 -20.269531 15.203125 -17.96875 L 9.390625 0 Z M 9.015625 -8.515625 L 9.015625 -14.53125 L 28.78125 -14.53125 L 28.78125 -8.515625 Z M 9.015625 -8.515625 "/></g></g></g><g fill="#3368dd" fill-opacity="1"><g transform="translate(306.638905, 306.612402)"><g><path d="M 3.21875 0 L 3.21875 -37.203125 L 18.03125 -37.203125 C 20.738281 -37.203125 23.003906 -36.789062 24.828125 -35.96875 C 26.660156 -35.15625 28.039062 -34.03125 28.96875 -32.59375 C 29.894531 -31.15625 30.359375 -29.503906 30.359375 -27.640625 C 30.359375 -26.191406 30.070312 -24.914062 29.5 -23.8125 C 28.925781 -22.71875 28.132812 -21.820312 27.125 -21.125 C 26.113281 -20.425781 24.960938 -19.925781 23.671875 -19.625 L 23.671875 -19.296875 C 25.097656 -19.234375 26.425781 -18.828125 27.65625 -18.078125 C 28.882812 -17.335938 29.878906 -16.3125 30.640625 -15 C 31.398438 -13.6875 31.78125 -12.125 31.78125 -10.3125 C 31.78125 -8.332031 31.296875 -6.5625 30.328125 -5 C 29.359375 -3.445312 27.921875 -2.222656 26.015625 -1.328125 C 24.117188 -0.441406 21.765625 0 18.953125 0 Z M 10.828125 -6.21875 L 17.546875 -6.21875 C 19.722656 -6.21875 21.332031 -6.644531 22.375 -7.5 C 23.414062 -8.351562 23.9375 -9.503906 23.9375 -10.953125 C 23.9375 -12.003906 23.6875 -12.925781 23.1875 -13.71875 C 22.6875 -14.519531 21.96875 -15.144531 21.03125 -15.59375 C 20.101562 -16.050781 19 -16.28125 17.71875 -16.28125 L 10.828125 -16.28125 Z M 10.828125 -21.625 L 17.03125 -21.625 C 18.125 -21.625 19.09375 -21.8125 19.9375 -22.1875 C 20.789062 -22.570312 21.457031 -23.125 21.9375 -23.84375 C 22.425781 -24.570312 22.671875 -25.425781 22.671875 -26.40625 C 22.671875 -27.789062 22.1875 -28.90625 21.21875 -29.75 C 20.25 -30.601562 18.882812 -31.03125 17.125 -31.03125 L 10.828125 -31.03125 Z M 10.828125 -21.625 "/></g></g></g><g fill="#1f2b5b" fill-opacity="1"><g transform="translate(114.01302, 333.749978)"><g><path d="M 1.265625 0 L 1.265625 -10.90625 L 2.640625 -10.90625 L 2.640625 -1.21875 L 7.734375 -1.21875 L 7.734375 0 Z M 1.265625 0 "/></g></g></g><g fill="#1f2b5b" fill-opacity="1"><g transform="translate(123.636917, 333.749978)"><g><path d="M 0.328125 0 L 4.3125 -10.90625 L 5.890625 -10.90625 L 9.890625 0 L 8.4375 0 L 6.140625 -6.5 C 5.992188 -6.90625 5.828125 -7.398438 5.640625 -7.984375 C 5.453125 -8.578125 5.222656 -9.335938 4.953125 -10.265625 L 5.234375 -10.265625 C 4.960938 -9.335938 4.726562 -8.570312 4.53125 -7.96875 C 4.34375 -7.375 4.1875 -6.882812 4.0625 -6.5 L 1.78125 0 Z M 2.34375 -3.046875 L 2.34375 -4.25 L 7.890625 -4.25 L 7.890625 -3.046875 Z M 2.34375 -3.046875 "/></g></g></g><g fill="#1f2b5b" fill-opacity="1"><g transform="translate(135.106517, 333.749978)"><g><path d="M 1.265625 0 L 1.265625 -10.90625 L 5.15625 -10.90625 C 5.90625 -10.90625 6.53125 -10.773438 7.03125 -10.515625 C 7.53125 -10.265625 7.90625 -9.921875 8.15625 -9.484375 C 8.414062 -9.054688 8.546875 -8.566406 8.546875 -8.015625 C 8.546875 -7.554688 8.460938 -7.175781 8.296875 -6.875 C 8.140625 -6.570312 7.925781 -6.328125 7.65625 -6.140625 C 7.382812 -5.953125 7.082031 -5.8125 6.75 -5.71875 L 6.75 -5.625 C 7.113281 -5.59375 7.460938 -5.46875 7.796875 -5.25 C 8.140625 -5.039062 8.421875 -4.742188 8.640625 -4.359375 C 8.859375 -3.972656 8.96875 -3.5 8.96875 -2.9375 C 8.96875 -2.375 8.835938 -1.867188 8.578125 -1.421875 C 8.328125 -0.984375 7.925781 -0.632812 7.375 -0.375 C 6.832031 -0.125 6.128906 0 5.265625 0 Z M 2.640625 -1.21875 L 5.234375 -1.21875 C 6.078125 -1.21875 6.6875 -1.378906 7.0625 -1.703125 C 7.4375 -2.023438 7.625 -2.4375 7.625 -2.9375 C 7.625 -3.3125 7.53125 -3.648438 7.34375 -3.953125 C 7.15625 -4.265625 6.890625 -4.507812 6.546875 -4.6875 C 6.203125 -4.863281 5.785156 -4.953125 5.296875 -4.953125 L 2.640625 -4.953125 Z M 2.640625 -6.125 L 5.109375 -6.125 C 5.515625 -6.125 5.875 -6.195312 6.1875 -6.34375 C 6.507812 -6.5 6.757812 -6.710938 6.9375 -6.984375 C 7.125 -7.265625 7.21875 -7.59375 7.21875 -7.96875 C 7.21875 -8.46875 7.046875 -8.878906 6.703125 -9.203125 C 6.359375 -9.535156 5.835938 -9.703125 5.140625 -9.703125 L 2.640625 -9.703125 Z M 2.640625 -6.125 "/></g></g></g><g fill="#1f2b5b" fill-opacity="1"><g transform="translate(146.114691, 333.749978)"><g><path d="M 5.71875 0.15625 C 4.78125 0.15625 3.941406 -0.0703125 3.203125 -0.53125 C 2.472656 -0.988281 1.894531 -1.640625 1.46875 -2.484375 C 1.050781 -3.328125 0.84375 -4.316406 0.84375 -5.453125 C 0.84375 -6.585938 1.050781 -7.578125 1.46875 -8.421875 C 1.894531 -9.265625 2.472656 -9.914062 3.203125 -10.375 C 3.941406 -10.832031 4.78125 -11.0625 5.71875 -11.0625 C 6.65625 -11.0625 7.488281 -10.832031 8.21875 -10.375 C 8.945312 -9.914062 9.519531 -9.265625 9.9375 -8.421875 C 10.363281 -7.578125 10.578125 -6.585938 10.578125 -5.453125 C 10.578125 -4.316406 10.363281 -3.328125 9.9375 -2.484375 C 9.519531 -1.640625 8.945312 -0.988281 8.21875 -0.53125 C 7.488281 -0.0703125 6.65625 0.15625 5.71875 0.15625 Z M 5.71875 -1.125 C 6.363281 -1.125 6.953125 -1.285156 7.484375 -1.609375 C 8.015625 -1.941406 8.4375 -2.429688 8.75 -3.078125 C 9.070312 -3.722656 9.234375 -4.515625 9.234375 -5.453125 C 9.234375 -6.390625 9.070312 -7.179688 8.75 -7.828125 C 8.4375 -8.472656 8.015625 -8.960938 7.484375 -9.296875 C 6.953125 -9.628906 6.363281 -9.796875 5.71875 -9.796875 C 5.0625 -9.796875 4.46875 -9.628906 3.9375 -9.296875 C 3.40625 -8.960938 2.976562 -8.472656 2.65625 -7.828125 C 2.34375 -7.179688 2.1875 -6.390625 2.1875 -5.453125 C 2.1875 -4.515625 2.34375 -3.722656 2.65625 -3.078125 C 2.976562 -2.441406 3.40625 -1.957031 3.9375 -1.625 C 4.46875 -1.289062 5.0625 -1.125 5.71875 -1.125 Z M 5.71875 -1.125 "/></g></g></g><g fill="#1f2b5b" fill-opacity="1"><g transform="translate(158.778139, 333.749978)"><g><path d="M 1.265625 0 L 1.265625 -10.90625 L 5.0625 -10.90625 C 5.894531 -10.90625 6.585938 -10.765625 7.140625 -10.484375 C 7.691406 -10.203125 8.101562 -9.804688 8.375 -9.296875 C 8.65625 -8.796875 8.796875 -8.21875 8.796875 -7.5625 C 8.796875 -6.894531 8.65625 -6.3125 8.375 -5.8125 C 8.09375 -5.320312 7.675781 -4.9375 7.125 -4.65625 C 6.570312 -4.382812 5.878906 -4.25 5.046875 -4.25 L 2.03125 -4.25 L 2.03125 -5.46875 L 5.015625 -5.46875 C 5.578125 -5.46875 6.035156 -5.550781 6.390625 -5.71875 C 6.742188 -5.894531 7.003906 -6.140625 7.171875 -6.453125 C 7.335938 -6.765625 7.421875 -7.132812 7.421875 -7.5625 C 7.421875 -7.988281 7.335938 -8.363281 7.171875 -8.6875 C 7.003906 -9.007812 6.742188 -9.257812 6.390625 -9.4375 C 6.035156 -9.613281 5.570312 -9.703125 5 -9.703125 L 2.640625 -9.703125 L 2.640625 0 Z M 7.546875 0 L 4.921875 -4.921875 L 6.46875 -4.921875 L 9.140625 0 Z M 7.546875 0 "/></g></g></g><g fill="#1f2b5b" fill-opacity="1"><g transform="translate(169.639829, 333.749978)"><g><path d="M 0.328125 0 L 4.3125 -10.90625 L 5.890625 -10.90625 L 9.890625 0 L 8.4375 0 L 6.140625 -6.5 C 5.992188 -6.90625 5.828125 -7.398438 5.640625 -7.984375 C 5.453125 -8.578125 5.222656 -9.335938 4.953125 -10.265625 L 5.234375 -10.265625 C 4.960938 -9.335938 4.726562 -8.570312 4.53125 -7.96875 C 4.34375 -7.375 4.1875 -6.882812 4.0625 -6.5 L 1.78125 0 Z M 2.34375 -3.046875 L 2.34375 -4.25 L 7.890625 -4.25 L 7.890625 -3.046875 Z M 2.34375 -3.046875 "/></g></g></g><g fill="#1f2b5b" fill-opacity="1"><g transform="translate(181.109429, 333.749978)"><g><path d="M 0.640625 -9.703125 L 0.640625 -10.90625 L 8.921875 -10.90625 L 8.921875 -9.703125 L 5.484375 -9.703125 L 5.484375 0 L 4.109375 0 L 4.109375 -9.703125 Z M 0.640625 -9.703125 "/></g></g></g><g fill="#1f2b5b" fill-opacity="1"><g transform="translate(191.919849, 333.749978)"><g><path d="M 5.71875 0.15625 C 4.78125 0.15625 3.941406 -0.0703125 3.203125 -0.53125 C 2.472656 -0.988281 1.894531 -1.640625 1.46875 -2.484375 C 1.050781 -3.328125 0.84375 -4.316406 0.84375 -5.453125 C 0.84375 -6.585938 1.050781 -7.578125 1.46875 -8.421875 C 1.894531 -9.265625 2.472656 -9.914062 3.203125 -10.375 C 3.941406 -10.832031 4.78125 -11.0625 5.71875 -11.0625 C 6.65625 -11.0625 7.488281 -10.832031 8.21875 -10.375 C 8.945312 -9.914062 9.519531 -9.265625 9.9375 -8.421875 C 10.363281 -7.578125 10.578125 -6.585938 10.578125 -5.453125 C 10.578125 -4.316406 10.363281 -3.328125 9.9375 -2.484375 C 9.519531 -1.640625 8.945312 -0.988281 8.21875 -0.53125 C 7.488281 -0.0703125 6.65625 0.15625 5.71875 0.15625 Z M 5.71875 -1.125 C 6.363281 -1.125 6.953125 -1.285156 7.484375 -1.609375 C 8.015625 -1.941406 8.4375 -2.429688 8.75 -3.078125 C 9.070312 -3.722656 9.234375 -4.515625 9.234375 -5.453125 C 9.234375 -6.390625 9.070312 -7.179688 8.75 -7.828125 C 8.4375 -8.472656 8.015625 -8.960938 7.484375 -9.296875 C 6.953125 -9.628906 6.363281 -9.796875 5.71875 -9.796875 C 5.0625 -9.796875 4.46875 -9.628906 3.9375 -9.296875 C 3.40625 -8.960938 2.976562 -8.472656 2.65625 -7.828125 C 2.34375 -7.179688 2.1875 -6.390625 2.1875 -5.453125 C 2.1875 -4.515625 2.34375 -3.722656 2.65625 -3.078125 C 2.976562 -2.441406 3.40625 -1.957031 3.9375 -1.625 C 4.46875 -1.289062 5.0625 -1.125 5.71875 -1.125 Z M 5.140625 -11.96875 L 6.171875 -14.125 L 7.640625 -14.125 L 6.21875 -11.96875 Z M 5.140625 -11.96875 "/></g></g></g><g fill="#1f2b5b" fill-opacity="1"><g transform="translate(204.583297, 333.749978)"><g><path d="M 1.265625 0 L 1.265625 -10.90625 L 5.0625 -10.90625 C 5.894531 -10.90625 6.585938 -10.765625 7.140625 -10.484375 C 7.691406 -10.203125 8.101562 -9.804688 8.375 -9.296875 C 8.65625 -8.796875 8.796875 -8.21875 8.796875 -7.5625 C 8.796875 -6.894531 8.65625 -6.3125 8.375 -5.8125 C 8.09375 -5.320312 7.675781 -4.9375 7.125 -4.65625 C 6.570312 -4.382812 5.878906 -4.25 5.046875 -4.25 L 2.03125 -4.25 L 2.03125 -5.46875 L 5.015625 -5.46875 C 5.578125 -5.46875 6.035156 -5.550781 6.390625 -5.71875 C 6.742188 -5.894531 7.003906 -6.140625 7.171875 -6.453125 C 7.335938 -6.765625 7.421875 -7.132812 7.421875 -7.5625 C 7.421875 -7.988281 7.335938 -8.363281 7.171875 -8.6875 C 7.003906 -9.007812 6.742188 -9.257812 6.390625 -9.4375 C 6.035156 -9.613281 5.570312 -9.703125 5 -9.703125 L 2.640625 -9.703125 L 2.640625 0 Z M 7.546875 0 L 4.921875 -4.921875 L 6.46875 -4.921875 L 9.140625 0 Z M 7.546875 0 "/></g></g></g><g fill="#1f2b5b" fill-opacity="1"><g transform="translate(215.444986, 333.749978)"><g><path d="M 2.640625 -10.90625 L 2.640625 0 L 1.265625 0 L 1.265625 -10.90625 Z M 2.640625 -10.90625 "/></g></g></g><g fill="#1f2b5b" fill-opacity="1"><g transform="translate(220.60111, 333.749978)"><g><path d="M 5.71875 0.15625 C 4.78125 0.15625 3.941406 -0.0703125 3.203125 -0.53125 C 2.472656 -0.988281 1.894531 -1.640625 1.46875 -2.484375 C 1.050781 -3.328125 0.84375 -4.316406 0.84375 -5.453125 C 0.84375 -6.585938 1.050781 -7.578125 1.46875 -8.421875 C 1.894531 -9.265625 2.472656 -9.914062 3.203125 -10.375 C 3.941406 -10.832031 4.78125 -11.0625 5.71875 -11.0625 C 6.65625 -11.0625 7.488281 -10.832031 8.21875 -10.375 C 8.945312 -9.914062 9.519531 -9.265625 9.9375 -8.421875 C 10.363281 -7.578125 10.578125 -6.585938 10.578125 -5.453125 C 10.578125 -4.316406 10.363281 -3.328125 9.9375 -2.484375 C 9.519531 -1.640625 8.945312 -0.988281 8.21875 -0.53125 C 7.488281 -0.0703125 6.65625 0.15625 5.71875 0.15625 Z M 5.71875 -1.125 C 6.363281 -1.125 6.953125 -1.285156 7.484375 -1.609375 C 8.015625 -1.941406 8.4375 -2.429688 8.75 -3.078125 C 9.070312 -3.722656 9.234375 -4.515625 9.234375 -5.453125 C 9.234375 -6.390625 9.070312 -7.179688 8.75 -7.828125 C 8.4375 -8.472656 8.015625 -8.960938 7.484375 -9.296875 C 6.953125 -9.628906 6.363281 -9.796875 5.71875 -9.796875 C 5.0625 -9.796875 4.46875 -9.628906 3.9375 -9.296875 C 3.40625 -8.960938 2.976562 -8.472656 2.65625 -7.828125 C 2.34375 -7.179688 2.1875 -6.390625 2.1875 -5.453125 C 2.1875 -4.515625 2.34375 -3.722656 2.65625 -3.078125 C 2.976562 -2.441406 3.40625 -1.957031 3.9375 -1.625 C 4.46875 -1.289062 5.0625 -1.125 5.71875 -1.125 Z M 5.71875 -1.125 "/></g></g></g><g fill="#1f2b5b" fill-opacity="1"><g transform="translate(233.264558, 333.749978)"><g/></g></g><g fill="#1f2b5b" fill-opacity="1"><g transform="translate(238.62576, 333.749978)"><g><path d="M 4.671875 0 L 2.03125 0 L 2.03125 -1.21875 L 4.578125 -1.21875 C 5.460938 -1.21875 6.195312 -1.382812 6.78125 -1.71875 C 7.375 -2.0625 7.8125 -2.550781 8.09375 -3.1875 C 8.382812 -3.832031 8.53125 -4.597656 8.53125 -5.484375 C 8.53125 -6.359375 8.382812 -7.109375 8.09375 -7.734375 C 7.8125 -8.359375 7.390625 -8.84375 6.828125 -9.1875 C 6.265625 -9.53125 5.554688 -9.703125 4.703125 -9.703125 L 1.96875 -9.703125 L 1.96875 -10.90625 L 4.8125 -10.90625 C 5.875 -10.90625 6.78125 -10.6875 7.53125 -10.25 C 8.289062 -9.820312 8.867188 -9.203125 9.265625 -8.390625 C 9.671875 -7.578125 9.875 -6.609375 9.875 -5.484375 C 9.875 -4.335938 9.671875 -3.351562 9.265625 -2.53125 C 8.859375 -1.71875 8.265625 -1.09375 7.484375 -0.65625 C 6.710938 -0.21875 5.773438 0 4.671875 0 Z M 2.640625 -10.90625 L 2.640625 0 L 1.265625 0 L 1.265625 -10.90625 Z M 2.640625 -10.90625 "/></g></g></g><g fill="#1f2b5b" fill-opacity="1"><g transform="translate(250.586082, 333.749978)"><g><path d="M 1.265625 0 L 1.265625 -10.90625 L 8.015625 -10.90625 L 8.015625 -9.703125 L 2.640625 -9.703125 L 2.640625 -6.140625 L 7.640625 -6.140625 L 7.640625 -4.921875 L 2.640625 -4.921875 L 2.640625 -1.21875 L 8.0625 -1.21875 L 8.0625 0 Z M 1.265625 0 "/></g></g></g><g fill="#1f2b5b" fill-opacity="1"><g transform="translate(260.773944, 333.749978)"><g/></g></g><g fill="#1f2b5b" fill-opacity="1"><g transform="translate(266.135146, 333.749978)"><g><path d="M 0.328125 0 L 4.3125 -10.90625 L 5.890625 -10.90625 L 9.890625 0 L 8.4375 0 L 6.140625 -6.5 C 5.992188 -6.90625 5.828125 -7.398438 5.640625 -7.984375 C 5.453125 -8.578125 5.222656 -9.335938 4.953125 -10.265625 L 5.234375 -10.265625 C 4.960938 -9.335938 4.726562 -8.570312 4.53125 -7.96875 C 4.34375 -7.375 4.1875 -6.882812 4.0625 -6.5 L 1.78125 0 Z M 2.34375 -3.046875 L 2.34375 -4.25 L 7.890625 -4.25 L 7.890625 -3.046875 Z M 2.34375 -3.046875 "/></g></g></g><g fill="#1f2b5b" fill-opacity="1"><g transform="translate(277.604746, 333.749978)"><g><path d="M 1.265625 0 L 1.265625 -10.90625 L 2.875 -10.90625 L 7.328125 -3.90625 C 7.441406 -3.726562 7.578125 -3.5 7.734375 -3.21875 C 7.898438 -2.945312 8.078125 -2.640625 8.265625 -2.296875 C 8.453125 -1.960938 8.632812 -1.601562 8.8125 -1.21875 L 8.640625 -1.171875 C 8.597656 -1.554688 8.566406 -1.9375 8.546875 -2.3125 C 8.535156 -2.6875 8.523438 -3.03125 8.515625 -3.34375 C 8.515625 -3.664062 8.515625 -3.929688 8.515625 -4.140625 L 8.515625 -10.90625 L 9.890625 -10.90625 L 9.890625 0 L 8.265625 0 L 4.296875 -6.234375 C 4.128906 -6.492188 3.953125 -6.773438 3.765625 -7.078125 C 3.585938 -7.378906 3.378906 -7.738281 3.140625 -8.15625 C 2.910156 -8.570312 2.628906 -9.070312 2.296875 -9.65625 L 2.53125 -9.734375 C 2.550781 -9.191406 2.566406 -8.691406 2.578125 -8.234375 C 2.597656 -7.773438 2.613281 -7.378906 2.625 -7.046875 C 2.632812 -6.710938 2.640625 -6.445312 2.640625 -6.25 L 2.640625 0 Z M 1.265625 0 "/></g></g></g><g fill="#1f2b5b" fill-opacity="1"><g transform="translate(290.004522, 333.749978)"><g><path d="M 0.328125 0 L 4.3125 -10.90625 L 5.890625 -10.90625 L 9.890625 0 L 8.4375 0 L 6.140625 -6.5 C 5.992188 -6.90625 5.828125 -7.398438 5.640625 -7.984375 C 5.453125 -8.578125 5.222656 -9.335938 4.953125 -10.265625 L 5.234375 -10.265625 C 4.960938 -9.335938 4.726562 -8.570312 4.53125 -7.96875 C 4.34375 -7.375 4.1875 -6.882812 4.0625 -6.5 L 1.78125 0 Z M 2.34375 -3.046875 L 2.34375 -4.25 L 7.890625 -4.25 L 7.890625 -3.046875 Z M 4.53125 -11.96875 L 5.5625 -14.125 L 7.03125 -14.125 L 5.609375 -11.96875 Z M 4.53125 -11.96875 "/></g></g></g><g fill="#1f2b5b" fill-opacity="1"><g transform="translate(301.474122, 333.749978)"><g><path d="M 1.265625 0 L 1.265625 -10.90625 L 2.640625 -10.90625 L 2.640625 -1.21875 L 7.734375 -1.21875 L 7.734375 0 Z M 1.265625 0 "/></g></g></g><g fill="#1f2b5b" fill-opacity="1"><g transform="translate(311.09803, 333.749978)"><g><path d="M 2.640625 -10.90625 L 2.640625 0 L 1.265625 0 L 1.265625 -10.90625 Z M 2.640625 -10.90625 "/></g></g></g><g fill="#1f2b5b" fill-opacity="1"><g transform="translate(316.254142, 333.749978)"><g><path d="M 4.78125 0.1875 C 3.988281 0.1875 3.296875 0.0546875 2.703125 -0.203125 C 2.117188 -0.472656 1.660156 -0.84375 1.328125 -1.3125 C 1.003906 -1.789062 0.828125 -2.351562 0.796875 -3 L 2.203125 -3 C 2.222656 -2.5625 2.347656 -2.195312 2.578125 -1.90625 C 2.816406 -1.625 3.128906 -1.410156 3.515625 -1.265625 C 3.898438 -1.117188 4.320312 -1.046875 4.78125 -1.046875 C 5.28125 -1.046875 5.726562 -1.125 6.125 -1.28125 C 6.519531 -1.445312 6.828125 -1.675781 7.046875 -1.96875 C 7.273438 -2.257812 7.390625 -2.597656 7.390625 -2.984375 C 7.390625 -3.328125 7.296875 -3.609375 7.109375 -3.828125 C 6.929688 -4.046875 6.675781 -4.226562 6.34375 -4.375 C 6.019531 -4.519531 5.648438 -4.648438 5.234375 -4.765625 L 3.9375 -5.125 C 3.007812 -5.382812 2.300781 -5.742188 1.8125 -6.203125 C 1.320312 -6.660156 1.078125 -7.253906 1.078125 -7.984375 C 1.078125 -8.597656 1.238281 -9.132812 1.5625 -9.59375 C 1.894531 -10.0625 2.34375 -10.421875 2.90625 -10.671875 C 3.46875 -10.929688 4.109375 -11.0625 4.828125 -11.0625 C 5.554688 -11.0625 6.195312 -10.929688 6.75 -10.671875 C 7.300781 -10.421875 7.734375 -10.066406 8.046875 -9.609375 C 8.367188 -9.148438 8.539062 -8.632812 8.5625 -8.0625 L 7.21875 -8.0625 C 7.15625 -8.625 6.898438 -9.0625 6.453125 -9.375 C 6.015625 -9.6875 5.457031 -9.84375 4.78125 -9.84375 C 4.3125 -9.84375 3.898438 -9.765625 3.546875 -9.609375 C 3.191406 -9.453125 2.914062 -9.238281 2.71875 -8.96875 C 2.519531 -8.695312 2.421875 -8.390625 2.421875 -8.046875 C 2.421875 -7.691406 2.523438 -7.398438 2.734375 -7.171875 C 2.953125 -6.941406 3.222656 -6.757812 3.546875 -6.625 C 3.878906 -6.488281 4.207031 -6.378906 4.53125 -6.296875 L 5.640625 -5.984375 C 5.992188 -5.898438 6.347656 -5.78125 6.703125 -5.625 C 7.066406 -5.476562 7.398438 -5.289062 7.703125 -5.0625 C 8.015625 -4.832031 8.265625 -4.546875 8.453125 -4.203125 C 8.648438 -3.867188 8.75 -3.460938 8.75 -2.984375 C 8.75 -2.378906 8.585938 -1.835938 8.265625 -1.359375 C 7.953125 -0.878906 7.5 -0.5 6.90625 -0.21875 C 6.320312 0.0507812 5.613281 0.1875 4.78125 0.1875 Z M 4.78125 0.1875 "/></g></g></g><g fill="#1f2b5b" fill-opacity="1"><g transform="translate(327.035254, 333.749978)"><g><path d="M 1.265625 0 L 1.265625 -10.90625 L 8.015625 -10.90625 L 8.015625 -9.703125 L 2.640625 -9.703125 L 2.640625 -6.140625 L 7.640625 -6.140625 L 7.640625 -4.921875 L 2.640625 -4.921875 L 2.640625 -1.21875 L 8.0625 -1.21875 L 8.0625 0 Z M 1.265625 0 "/></g></g></g></svg>