<svg xmlns="http://www.w3.org/2000/svg" xmlns:xlink="http://www.w3.org/1999/xlink" width="500" zoomAndPan="magnify" viewBox="0 0 375 374.999991" height="500" preserveAspectRatio="xMidYMid meet" version="1.0"><defs><clipPath id="37f71d7e9a"><path d="M 0.320312 104.671875 L 187.875 104.671875 L 187.875 352.121094 L 0.320312 352.121094 Z M 0.320312 104.671875 " clip-rule="nonzero"/></clipPath><clipPath id="5108384632"><path d="M 69 0.875 L 91 0.875 L 91 23 L 69 23 Z M 69 0.875 " clip-rule="nonzero"/></clipPath><clipPath id="bb1ca43402"><path d="M 136 5 L 168.21875 5 L 168.21875 38 L 136 38 Z M 136 5 " clip-rule="nonzero"/></clipPath><clipPath id="fa65b361a4"><path d="M 47 75 L 70 75 L 70 96.75 L 47 96.75 Z M 47 75 " clip-rule="nonzero"/></clipPath><clipPath id="2ec4d45a7a"><path d="M 23.078125 54 L 38 54 L 38 69 L 23.078125 69 Z M 23.078125 54 " clip-rule="nonzero"/></clipPath><clipPath id="c1b2d71419"><rect x="0" width="189" y="0" height="353"/></clipPath></defs><g transform="matrix(1, 0, 0, 1, 94, 11)"><g clip-path="url(#c1b2d71419)"><path fill="#79cee8" d="M 100.996094 220.933594 C 100.996094 219.953125 101.09375 218.980469 101.285156 218.015625 C 101.476562 217.054688 101.757812 216.121094 102.132812 215.214844 C 102.507812 214.308594 102.96875 213.445312 103.515625 212.628906 C 104.058594 211.8125 104.679688 211.058594 105.375 210.367188 C 106.066406 209.671875 106.824219 209.050781 107.636719 208.507812 C 108.453125 207.960938 109.316406 207.5 110.222656 207.125 C 111.128906 206.75 112.0625 206.46875 113.027344 206.277344 C 113.988281 206.085938 114.960938 205.988281 115.941406 205.988281 C 116.921875 205.988281 117.894531 206.085938 118.855469 206.277344 C 119.820312 206.46875 120.753906 206.75 121.660156 207.125 C 122.566406 207.5 123.429688 207.960938 124.246094 208.507812 C 125.058594 209.050781 125.816406 209.671875 126.507812 210.367188 C 127.203125 211.058594 127.820312 211.8125 128.367188 212.628906 C 128.914062 213.445312 129.371094 214.308594 129.75 215.214844 C 130.125 216.121094 130.40625 217.054688 130.597656 218.015625 C 130.789062 218.980469 130.886719 219.953125 130.886719 220.933594 C 130.886719 221.914062 130.789062 222.886719 130.597656 223.847656 C 130.40625 224.8125 130.125 225.746094 129.75 226.652344 C 129.371094 227.558594 128.914062 228.421875 128.367188 229.234375 C 127.824219 230.050781 127.203125 230.808594 126.507812 231.5 C 125.816406 232.195312 125.058594 232.8125 124.246094 233.359375 C 123.429688 233.90625 122.566406 234.363281 121.660156 234.742188 C 120.753906 235.117188 119.820312 235.398438 118.855469 235.589844 C 117.894531 235.78125 116.921875 235.878906 115.941406 235.878906 C 114.960938 235.878906 113.988281 235.78125 113.027344 235.589844 C 112.0625 235.398438 111.128906 235.117188 110.222656 234.742188 C 109.316406 234.363281 108.453125 233.90625 107.636719 233.359375 C 106.824219 232.8125 106.066406 232.195312 105.375 231.5 C 104.679688 230.808594 104.058594 230.050781 103.515625 229.234375 C 102.96875 228.421875 102.507812 227.558594 102.132812 226.652344 C 101.757812 225.746094 101.476562 224.8125 101.285156 223.847656 C 101.09375 222.886719 100.996094 221.914062 100.996094 220.933594 Z M 78.980469 213.0625 C 79.628906 213.0625 80.273438 212.996094 80.914062 212.871094 C 81.550781 212.742188 82.171875 212.554688 82.773438 212.304688 C 83.375 212.058594 83.945312 211.75 84.488281 211.390625 C 85.027344 211.027344 85.527344 210.617188 85.988281 210.15625 C 86.449219 209.695312 86.859375 209.195312 87.222656 208.65625 C 87.582031 208.113281 87.890625 207.542969 88.136719 206.941406 C 88.386719 206.339844 88.574219 205.71875 88.703125 205.082031 C 88.828125 204.441406 88.894531 203.796875 88.894531 203.148438 C 88.894531 202.496094 88.828125 201.851562 88.703125 201.214844 C 88.574219 200.574219 88.386719 199.953125 88.136719 199.351562 C 87.890625 198.75 87.582031 198.179688 87.222656 197.640625 C 86.859375 197.097656 86.449219 196.597656 85.988281 196.136719 C 85.527344 195.675781 85.027344 195.265625 84.488281 194.902344 C 83.945312 194.542969 83.375 194.238281 82.773438 193.988281 C 82.171875 193.738281 81.550781 193.550781 80.914062 193.421875 C 80.273438 193.296875 79.628906 193.234375 78.980469 193.234375 C 78.328125 193.234375 77.683594 193.296875 77.042969 193.421875 C 76.40625 193.550781 75.785156 193.738281 75.183594 193.988281 C 74.582031 194.238281 74.011719 194.542969 73.472656 194.902344 C 72.929688 195.265625 72.429688 195.675781 71.96875 196.136719 C 71.507812 196.597656 71.097656 197.097656 70.734375 197.640625 C 70.375 198.179688 70.070312 198.75 69.820312 199.351562 C 69.570312 199.953125 69.382812 200.574219 69.253906 201.214844 C 69.128906 201.851562 69.066406 202.496094 69.066406 203.148438 C 69.066406 203.796875 69.128906 204.441406 69.253906 205.082031 C 69.382812 205.71875 69.570312 206.339844 69.820312 206.941406 C 70.070312 207.542969 70.375 208.113281 70.734375 208.65625 C 71.097656 209.195312 71.507812 209.695312 71.96875 210.15625 C 72.429688 210.617188 72.929688 211.027344 73.472656 211.390625 C 74.011719 211.75 74.582031 212.058594 75.183594 212.304688 C 75.785156 212.554688 76.40625 212.742188 77.042969 212.871094 C 77.683594 212.996094 78.328125 213.0625 78.980469 213.0625 Z M 75.503906 258.480469 C 76.03125 258.480469 76.558594 258.453125 77.085938 258.402344 C 77.609375 258.351562 78.132812 258.273438 78.648438 258.167969 C 79.167969 258.066406 79.679688 257.9375 80.183594 257.785156 C 80.6875 257.632812 81.183594 257.453125 81.671875 257.253906 C 82.160156 257.050781 82.636719 256.824219 83.101562 256.574219 C 83.570312 256.328125 84.019531 256.054688 84.460938 255.761719 C 84.898438 255.46875 85.324219 255.15625 85.730469 254.820312 C 86.140625 254.484375 86.53125 254.128906 86.902344 253.757812 C 87.277344 253.382812 87.632812 252.992188 87.964844 252.585938 C 88.300781 252.175781 88.613281 251.753906 88.910156 251.3125 C 89.203125 250.875 89.472656 250.421875 89.722656 249.957031 C 89.96875 249.492188 90.195312 249.015625 90.398438 248.527344 C 90.601562 248.039062 90.777344 247.542969 90.929688 247.039062 C 91.085938 246.53125 91.210938 246.019531 91.316406 245.503906 C 91.417969 244.984375 91.496094 244.464844 91.546875 243.9375 C 91.597656 243.414062 91.625 242.886719 91.625 242.359375 C 91.625 241.828125 91.597656 241.304688 91.546875 240.777344 C 91.496094 240.253906 91.417969 239.730469 91.316406 239.210938 C 91.210938 238.695312 91.085938 238.183594 90.929688 237.679688 C 90.777344 237.171875 90.601562 236.675781 90.398438 236.1875 C 90.195312 235.699219 89.96875 235.222656 89.722656 234.757812 C 89.472656 234.292969 89.203125 233.839844 88.90625 233.402344 C 88.613281 232.960938 88.300781 232.539062 87.964844 232.128906 C 87.628906 231.722656 87.277344 231.332031 86.902344 230.957031 C 86.53125 230.585938 86.140625 230.230469 85.730469 229.894531 C 85.324219 229.558594 84.898438 229.246094 84.460938 228.953125 C 84.019531 228.660156 83.570312 228.386719 83.101562 228.140625 C 82.636719 227.890625 82.160156 227.664062 81.671875 227.464844 C 81.183594 227.261719 80.6875 227.082031 80.183594 226.929688 C 79.679688 226.777344 79.167969 226.648438 78.648438 226.546875 C 78.128906 226.441406 77.609375 226.367188 77.082031 226.3125 C 76.558594 226.261719 76.03125 226.234375 75.503906 226.234375 C 74.976562 226.234375 74.449219 226.261719 73.921875 226.3125 C 73.398438 226.367188 72.875 226.441406 72.359375 226.546875 C 71.839844 226.648438 71.328125 226.777344 70.824219 226.929688 C 70.320312 227.082031 69.820312 227.261719 69.335938 227.464844 C 68.847656 227.664062 68.371094 227.890625 67.902344 228.140625 C 67.4375 228.386719 66.984375 228.660156 66.546875 228.953125 C 66.109375 229.246094 65.683594 229.558594 65.277344 229.894531 C 64.867188 230.230469 64.476562 230.585938 64.105469 230.957031 C 63.730469 231.332031 63.375 231.722656 63.042969 232.128906 C 62.707031 232.539062 62.390625 232.960938 62.097656 233.402344 C 61.804688 233.839844 61.535156 234.292969 61.285156 234.757812 C 61.035156 235.222656 60.8125 235.699219 60.609375 236.1875 C 60.40625 236.675781 60.230469 237.171875 60.074219 237.675781 C 59.921875 238.183594 59.792969 238.695312 59.691406 239.210938 C 59.589844 239.730469 59.511719 240.25 59.460938 240.777344 C 59.40625 241.300781 59.382812 241.828125 59.382812 242.355469 C 59.382812 242.886719 59.410156 243.410156 59.460938 243.9375 C 59.511719 244.460938 59.589844 244.984375 59.695312 245.5 C 59.796875 246.019531 59.925781 246.53125 60.082031 247.035156 C 60.234375 247.539062 60.410156 248.035156 60.613281 248.523438 C 60.816406 249.011719 61.042969 249.488281 61.289062 249.953125 C 61.539062 250.417969 61.8125 250.871094 62.105469 251.308594 C 62.398438 251.75 62.710938 252.171875 63.046875 252.578125 C 63.382812 252.988281 63.734375 253.378906 64.109375 253.75 C 64.484375 254.125 64.875 254.480469 65.28125 254.8125 C 65.6875 255.148438 66.113281 255.464844 66.550781 255.757812 C 66.988281 256.050781 67.441406 256.320312 67.90625 256.570312 C 68.371094 256.820312 68.847656 257.046875 69.335938 257.246094 C 69.824219 257.449219 70.320312 257.628906 70.824219 257.78125 C 71.332031 257.933594 71.84375 258.0625 72.359375 258.167969 C 72.878906 258.269531 73.398438 258.347656 73.925781 258.398438 C 74.449219 258.453125 74.976562 258.480469 75.503906 258.480469 Z M 158.324219 248.753906 C 158.253906 248.316406 158.144531 247.890625 157.996094 247.472656 C 157.851562 247.054688 157.667969 246.652344 157.453125 246.265625 C 157.234375 245.878906 156.984375 245.515625 156.703125 245.175781 C 156.421875 244.832031 156.113281 244.519531 155.773438 244.230469 C 155.4375 243.941406 155.078125 243.6875 154.695312 243.464844 C 154.3125 243.238281 153.914062 243.050781 153.5 242.898438 C 153.085938 242.742188 152.660156 242.625 152.222656 242.546875 C 151.789062 242.46875 151.347656 242.429688 150.90625 242.425781 L 104.050781 242.425781 C 103.808594 242.429688 103.574219 242.480469 103.347656 242.570312 C 103.121094 242.664062 102.921875 242.796875 102.746094 242.964844 C 102.570312 243.132812 102.429688 243.328125 102.332031 243.550781 C 102.230469 243.773438 102.171875 244.007812 102.160156 244.25 C 102.101562 245.085938 102.003906 245.914062 101.867188 246.738281 C 101.730469 247.5625 101.554688 248.378906 101.34375 249.1875 C 101.128906 249.996094 100.878906 250.792969 100.589844 251.574219 C 100.300781 252.359375 99.976562 253.128906 99.617188 253.882812 C 99.257812 254.636719 98.859375 255.371094 98.433594 256.089844 C 98.003906 256.808594 97.539062 257.503906 97.046875 258.175781 C 96.550781 258.851562 96.027344 259.5 95.472656 260.125 C 94.914062 260.746094 94.332031 261.34375 93.71875 261.914062 C 93.109375 262.484375 92.472656 263.023438 91.808594 263.535156 C 91.148438 264.042969 90.464844 264.523438 89.757812 264.96875 C 89.050781 265.414062 88.324219 265.824219 87.578125 266.203125 C 86.832031 266.578125 86.070312 266.921875 85.292969 267.226562 C 84.515625 267.535156 83.722656 267.804688 82.921875 268.035156 C 82.117188 268.265625 81.304688 268.460938 80.484375 268.617188 C 79.664062 268.773438 78.835938 268.890625 78.003906 268.96875 C 77.171875 269.046875 76.339844 269.085938 75.503906 269.085938 C 74.667969 269.085938 73.835938 269.046875 73.003906 268.96875 C 72.167969 268.890625 71.34375 268.773438 70.523438 268.617188 C 69.699219 268.460938 68.890625 268.265625 68.085938 268.035156 C 67.285156 267.804688 66.492188 267.535156 65.714844 267.226562 C 64.9375 266.921875 64.175781 266.578125 63.429688 266.203125 C 62.683594 265.824219 61.957031 265.414062 61.25 264.96875 C 60.542969 264.523438 59.859375 264.042969 59.199219 263.535156 C 58.535156 263.023438 57.898438 262.484375 57.289062 261.914062 C 56.675781 261.34375 56.09375 260.746094 55.535156 260.125 C 54.980469 259.5 54.457031 258.851562 53.960938 258.175781 C 53.46875 257.503906 53.003906 256.808594 52.574219 256.089844 C 52.144531 255.371094 51.75 254.636719 51.390625 253.882812 C 51.03125 253.128906 50.707031 252.359375 50.417969 251.574219 C 50.128906 250.792969 49.878906 249.996094 49.664062 249.1875 C 49.453125 248.378906 49.277344 247.5625 49.140625 246.738281 C 49.003906 245.914062 48.90625 245.085938 48.847656 244.25 C 48.835938 244.007812 48.777344 243.773438 48.675781 243.550781 C 48.574219 243.328125 48.4375 243.132812 48.261719 242.964844 C 48.085938 242.796875 47.886719 242.664062 47.660156 242.570312 C 47.433594 242.480469 47.199219 242.429688 46.957031 242.425781 L 37.972656 242.425781 C 37.535156 242.425781 37.097656 242.464844 36.664062 242.542969 C 36.234375 242.617188 35.808594 242.730469 35.398438 242.882812 C 34.984375 243.03125 34.585938 243.21875 34.207031 243.4375 C 33.828125 243.65625 33.46875 243.910156 33.132812 244.191406 C 32.796875 244.476562 32.488281 244.785156 32.207031 245.121094 C 31.921875 245.460938 31.671875 245.820312 31.457031 246.199219 C 31.238281 246.582031 31.054688 246.980469 30.90625 247.394531 C 30.753906 247.808594 30.644531 248.230469 30.570312 248.664062 C 29.777344 253.371094 29.5 258.109375 29.742188 262.878906 C 31.363281 295.328125 57.417969 321.929688 89.832031 324.171875 C 91.046875 324.257812 92.269531 324.308594 93.488281 324.328125 C 94.710938 324.34375 95.929688 324.328125 97.148438 324.273438 C 98.371094 324.222656 99.585938 324.136719 100.804688 324.015625 C 102.019531 323.894531 103.230469 323.738281 104.433594 323.550781 C 105.640625 323.359375 106.839844 323.136719 108.035156 322.878906 C 109.230469 322.621094 110.414062 322.332031 111.589844 322.007812 C 112.769531 321.683594 113.9375 321.328125 115.09375 320.9375 C 116.25 320.546875 117.394531 320.125 118.527344 319.667969 C 119.660156 319.214844 120.78125 318.726562 121.886719 318.210938 C 122.992188 317.691406 124.082031 317.144531 125.15625 316.5625 C 126.234375 315.984375 127.289062 315.375 128.332031 314.734375 C 129.371094 314.097656 130.390625 313.429688 131.394531 312.730469 C 132.398438 312.035156 133.378906 311.308594 134.339844 310.554688 C 135.304688 309.804688 136.242188 309.023438 137.160156 308.21875 C 138.078125 307.414062 138.972656 306.582031 139.84375 305.726562 C 140.714844 304.871094 141.558594 303.988281 142.378906 303.085938 C 143.199219 302.183594 143.996094 301.257812 144.765625 300.308594 C 145.53125 299.359375 146.273438 298.386719 146.988281 297.398438 C 147.703125 296.40625 148.386719 295.398438 149.042969 294.367188 C 149.699219 293.339844 150.328125 292.289062 150.925781 291.226562 C 151.523438 290.160156 152.089844 289.082031 152.625 287.984375 C 153.164062 286.886719 153.667969 285.773438 154.140625 284.648438 C 154.617188 283.523438 155.058594 282.386719 155.464844 281.234375 C 155.875 280.085938 156.253906 278.925781 156.597656 277.753906 C 156.941406 276.582031 157.25 275.402344 157.527344 274.210938 C 157.804688 273.023438 158.046875 271.828125 158.257812 270.625 C 158.46875 269.421875 158.644531 268.210938 158.785156 267 C 158.925781 265.785156 159.03125 264.570312 159.105469 263.351562 C 159.179688 262.132812 159.214844 260.914062 159.21875 259.691406 C 159.222656 258.46875 159.191406 257.25 159.128906 256.03125 C 159.0625 254.8125 158.960938 253.59375 158.828125 252.382812 C 158.695312 251.167969 158.527344 249.957031 158.324219 248.753906 Z M 158.324219 248.753906 " fill-opacity="1" fill-rule="nonzero"/><g clip-path="url(#37f71d7e9a)"><path fill="#3368dd" d="M 128.871094 115.308594 C 129.523438 115.308594 130.164062 115.375 130.800781 115.507812 C 131.433594 115.644531 132.046875 115.84375 132.640625 116.105469 C 133.234375 116.367188 133.796875 116.691406 134.320312 117.070312 C 134.847656 117.449219 135.328125 117.882812 135.765625 118.363281 C 136.199219 118.84375 136.582031 119.363281 136.910156 119.925781 C 137.234375 120.484375 137.5 121.074219 137.707031 121.691406 C 137.910156 122.308594 138.046875 122.9375 138.117188 123.585938 C 138.191406 124.230469 138.195312 124.875 138.128906 125.519531 C 137.667969 130.355469 133.332031 133.910156 128.472656 133.910156 L 127.542969 133.910156 C 127.101562 133.910156 126.667969 133.953125 126.234375 134.039062 C 125.800781 134.125 125.382812 134.25 124.976562 134.417969 C 124.566406 134.589844 124.179688 134.796875 123.816406 135.039062 C 123.449219 135.285156 123.109375 135.5625 122.796875 135.875 C 122.484375 136.1875 122.207031 136.527344 121.960938 136.890625 C 121.71875 137.257812 121.511719 137.644531 121.34375 138.054688 C 121.171875 138.460938 121.046875 138.878906 120.960938 139.3125 C 120.875 139.746094 120.832031 140.179688 120.832031 140.621094 L 120.832031 174.78125 C 120.832031 175.453125 120.933594 176.109375 121.132812 176.75 C 121.332031 177.394531 121.621094 177.992188 122 178.546875 C 122.378906 179.101562 122.828125 179.589844 123.355469 180.007812 C 123.882812 180.425781 124.457031 180.757812 125.082031 181.003906 C 127.308594 181.886719 129.496094 182.863281 131.636719 183.9375 C 133.78125 185.007812 135.875 186.171875 137.917969 187.421875 C 139.960938 188.675781 141.945312 190.015625 143.871094 191.4375 C 145.796875 192.863281 147.660156 194.367188 149.457031 195.953125 C 151.253906 197.539062 152.980469 199.195312 154.632812 200.929688 C 156.285156 202.664062 157.859375 204.46875 159.359375 206.339844 C 160.855469 208.207031 162.269531 210.140625 163.601562 212.132812 C 164.929688 214.125 166.171875 216.171875 167.328125 218.273438 C 168.480469 220.371094 169.542969 222.519531 170.511719 224.710938 C 171.480469 226.902344 172.351562 229.128906 173.125 231.398438 C 173.902344 233.664062 174.578125 235.960938 175.15625 238.285156 C 175.730469 240.613281 176.207031 242.957031 176.582031 245.324219 C 176.957031 247.691406 177.226562 250.070312 177.398438 252.460938 C 177.566406 254.851562 177.632812 257.242188 177.59375 259.640625 C 177.554688 262.035156 177.414062 264.425781 177.167969 266.808594 C 176.921875 269.191406 176.578125 271.5625 176.128906 273.914062 C 175.679688 276.269531 175.128906 278.597656 174.476562 280.902344 C 173.828125 283.210938 173.078125 285.484375 172.230469 287.722656 C 171.382812 289.964844 170.441406 292.167969 169.402344 294.328125 C 168.363281 296.484375 167.234375 298.597656 166.015625 300.660156 C 164.796875 302.722656 163.488281 304.726562 162.097656 306.675781 C 160.703125 308.625 159.226562 310.511719 157.671875 312.332031 C 156.113281 314.15625 154.484375 315.90625 152.773438 317.585938 C 151.066406 319.269531 149.289062 320.871094 147.445312 322.398438 C 145.597656 323.925781 143.6875 325.371094 141.71875 326.734375 C 139.746094 328.09375 137.71875 329.371094 135.636719 330.558594 C 133.558594 331.742188 131.429688 332.839844 129.253906 333.839844 C 127.078125 334.84375 124.859375 335.753906 122.605469 336.5625 C 120.351562 337.375 118.066406 338.085938 115.75 338.703125 C 113.433594 339.316406 111.097656 339.828125 108.734375 340.242188 C 106.375 340.652344 104 340.960938 101.613281 341.167969 C 99.226562 341.375 96.835938 341.476562 94.441406 341.476562 C 93.34375 341.476562 92.234375 341.457031 91.125 341.414062 C 48.421875 339.757812 13.5 305.242188 11.382812 262.554688 C 11.269531 260.402344 11.246094 258.246094 11.304688 256.089844 C 11.359375 253.933594 11.503906 251.78125 11.726562 249.636719 C 11.953125 247.492188 12.261719 245.359375 12.652344 243.238281 C 13.042969 241.117188 13.515625 239.011719 14.070312 236.929688 C 14.625 234.84375 15.261719 232.785156 15.976562 230.75 C 16.691406 228.714844 17.484375 226.710938 18.355469 224.738281 C 19.226562 222.761719 20.171875 220.828125 21.195312 218.925781 C 22.214844 217.027344 23.308594 215.167969 24.476562 213.355469 C 25.640625 211.539062 26.878906 209.773438 28.179688 208.054688 C 29.484375 206.335938 30.851562 204.671875 32.285156 203.058594 C 33.71875 201.449219 35.214844 199.894531 36.765625 198.398438 C 38.320312 196.902344 39.933594 195.46875 41.597656 194.097656 C 43.261719 192.726562 44.980469 191.425781 46.746094 190.1875 C 48.515625 188.949219 50.328125 187.785156 52.183594 186.6875 C 54.042969 185.589844 55.941406 184.570312 57.878906 183.621094 C 59.816406 182.671875 61.785156 181.800781 63.792969 181.007812 C 64.417969 180.761719 64.992188 180.429688 65.519531 180.007812 C 66.046875 179.589844 66.5 179.101562 66.878906 178.546875 C 67.257812 177.992188 67.546875 177.394531 67.746094 176.75 C 67.945312 176.109375 68.046875 175.453125 68.046875 174.777344 L 68.046875 140.621094 C 68.046875 140.179688 68.003906 139.746094 67.917969 139.3125 C 67.832031 138.878906 67.707031 138.460938 67.535156 138.054688 C 67.367188 137.644531 67.160156 137.257812 66.917969 136.890625 C 66.671875 136.527344 66.394531 136.1875 66.082031 135.875 C 65.769531 135.5625 65.429688 135.285156 65.066406 135.039062 C 64.699219 134.796875 64.3125 134.589844 63.902344 134.417969 C 63.496094 134.25 63.078125 134.125 62.644531 134.039062 C 62.210938 133.953125 61.777344 133.910156 61.335938 133.910156 C 60.6875 133.910156 60.042969 133.839844 59.410156 133.707031 C 58.773438 133.574219 58.160156 133.375 57.566406 133.109375 C 56.972656 132.847656 56.410156 132.527344 55.886719 132.144531 C 55.359375 131.765625 54.878906 131.335938 54.441406 130.851562 C 54.007812 130.371094 53.625 129.851562 53.296875 129.289062 C 52.972656 128.730469 52.707031 128.140625 52.503906 127.523438 C 52.296875 126.90625 52.160156 126.277344 52.089844 125.632812 C 52.019531 124.984375 52.015625 124.339844 52.078125 123.695312 C 52.539062 118.859375 56.878906 115.308594 61.734375 115.308594 L 128.871094 115.308594 M 128.871094 104.703125 L 61.734375 104.703125 C 51.359375 104.703125 42.480469 112.601562 41.519531 122.6875 C 41.402344 123.90625 41.394531 125.125 41.503906 126.339844 C 41.609375 127.558594 41.828125 128.757812 42.152344 129.9375 C 42.480469 131.117188 42.914062 132.253906 43.453125 133.351562 C 43.988281 134.453125 44.621094 135.492188 45.351562 136.472656 C 46.082031 137.457031 46.894531 138.363281 47.789062 139.195312 C 48.6875 140.027344 49.652344 140.769531 50.683594 141.425781 C 51.71875 142.078125 52.804688 142.632812 53.9375 143.089844 C 55.074219 143.542969 56.242188 143.890625 57.441406 144.128906 L 57.441406 172.15625 C 55.257812 173.09375 53.113281 174.113281 51.007812 175.214844 C 48.902344 176.316406 46.84375 177.496094 44.828125 178.753906 C 42.808594 180.015625 40.84375 181.347656 38.929688 182.753906 C 37.015625 184.160156 35.15625 185.640625 33.355469 187.1875 C 31.550781 188.738281 29.808594 190.351562 28.128906 192.035156 C 26.449219 193.714844 24.835938 195.457031 23.289062 197.261719 C 21.742188 199.0625 20.265625 200.925781 18.859375 202.839844 C 17.453125 204.757812 16.121094 206.722656 14.863281 208.738281 C 13.609375 210.757812 12.429688 212.816406 11.328125 214.925781 C 10.230469 217.03125 9.210938 219.175781 8.273438 221.359375 C 7.335938 223.542969 6.484375 225.761719 5.714844 228.007812 C 4.945312 230.257812 4.265625 232.53125 3.667969 234.832031 C 3.070312 237.132812 2.5625 239.453125 2.144531 241.792969 C 1.726562 244.132812 1.394531 246.484375 1.152344 248.847656 C 0.914062 251.210938 0.761719 253.582031 0.699219 255.957031 C 0.640625 258.332031 0.667969 260.707031 0.789062 263.082031 C 3.171875 311.082031 42.675781 350.144531 90.714844 352.011719 C 91.953125 352.058594 93.207031 352.082031 94.4375 352.082031 C 146.144531 352.082031 188.207031 310.019531 188.207031 258.3125 C 188.207031 256.039062 188.125 253.761719 187.960938 251.492188 C 187.792969 249.21875 187.546875 246.957031 187.214844 244.707031 C 186.882812 242.453125 186.472656 240.214844 185.980469 237.992188 C 185.484375 235.769531 184.910156 233.566406 184.257812 231.386719 C 183.601562 229.203125 182.871094 227.050781 182.058594 224.921875 C 181.25 222.792969 180.359375 220.699219 179.398438 218.632812 C 178.433594 216.570312 177.394531 214.546875 176.285156 212.558594 C 175.171875 210.570312 173.992188 208.625 172.738281 206.722656 C 171.484375 204.824219 170.164062 202.96875 168.777344 201.164062 C 167.390625 199.359375 165.9375 197.605469 164.421875 195.90625 C 162.90625 194.207031 161.332031 192.566406 159.695312 190.980469 C 158.058594 189.394531 156.367188 187.871094 154.621094 186.410156 C 152.875 184.949219 151.078125 183.554688 149.230469 182.222656 C 147.382812 180.890625 145.488281 179.628906 143.550781 178.4375 C 141.609375 177.246094 139.628906 176.125 137.605469 175.074219 C 135.585938 174.027344 133.527344 173.054688 131.4375 172.15625 L 131.4375 144.296875 C 140.492188 142.964844 147.820312 135.636719 148.6875 126.527344 C 148.753906 125.839844 148.785156 125.148438 148.78125 124.457031 C 148.773438 123.765625 148.734375 123.074219 148.65625 122.386719 C 148.578125 121.699219 148.464844 121.015625 148.316406 120.339844 C 148.167969 119.664062 147.984375 118.996094 147.765625 118.339844 C 147.550781 117.683594 147.296875 117.039062 147.011719 116.410156 C 146.726562 115.777344 146.410156 115.164062 146.0625 114.566406 C 145.710938 113.96875 145.332031 113.390625 144.921875 112.832031 C 144.515625 112.277344 144.078125 111.742188 143.613281 111.226562 C 143.148438 110.714844 142.65625 110.230469 142.140625 109.765625 C 141.625 109.304688 141.085938 108.871094 140.523438 108.46875 C 139.964844 108.0625 139.382812 107.6875 138.78125 107.34375 C 138.183594 107 137.566406 106.6875 136.933594 106.40625 C 136.300781 106.125 135.652344 105.878906 134.996094 105.667969 C 134.335938 105.453125 133.667969 105.277344 132.992188 105.132812 C 132.3125 104.988281 131.632812 104.882812 130.941406 104.808594 C 130.253906 104.738281 129.566406 104.703125 128.871094 104.703125 Z M 128.871094 104.703125 " fill-opacity="1" fill-rule="nonzero"/></g><g clip-path="url(#5108384632)"><path fill="#3368dd" d="M 85.578125 22.390625 L 74.1875 22.390625 C 71.394531 22.390625 69.125 20.117188 69.125 17.328125 L 69.125 5.9375 C 69.125 3.144531 71.394531 0.875 74.1875 0.875 L 85.578125 0.875 C 88.371094 0.875 90.640625 3.144531 90.640625 5.9375 L 90.640625 17.332031 C 90.640625 20.117188 88.371094 22.390625 85.578125 22.390625 Z M 74.1875 2.03125 C 72.035156 2.03125 70.285156 3.78125 70.285156 5.933594 L 70.285156 17.328125 C 70.285156 19.480469 72.035156 21.230469 74.1875 21.230469 L 85.578125 21.230469 C 87.734375 21.230469 89.480469 19.480469 89.480469 17.328125 L 89.480469 5.9375 C 89.480469 3.785156 87.734375 2.035156 85.578125 2.035156 L 74.1875 2.035156 Z M 74.1875 2.03125 " fill-opacity="1" fill-rule="nonzero"/></g><path fill="#3368dd" d="M 123.105469 82.3125 L 102.0625 82.3125 C 97.175781 82.3125 93.203125 78.339844 93.203125 73.453125 L 93.203125 52.40625 C 93.203125 47.523438 97.175781 43.550781 102.0625 43.550781 L 123.105469 43.550781 C 127.992188 43.550781 131.964844 47.523438 131.964844 52.40625 L 131.964844 73.453125 C 131.964844 78.339844 127.992188 82.3125 123.105469 82.3125 Z M 102.0625 44.707031 C 97.816406 44.707031 94.359375 48.160156 94.359375 52.40625 L 94.359375 73.453125 C 94.359375 77.699219 97.8125 81.15625 102.0625 81.15625 L 123.105469 81.15625 C 127.351562 81.15625 130.808594 77.703125 130.808594 73.453125 L 130.808594 52.40625 C 130.808594 48.164062 127.355469 44.707031 123.105469 44.707031 Z M 102.0625 44.707031 " fill-opacity="1" fill-rule="nonzero"/><g clip-path="url(#bb1ca43402)"><path fill="#3368dd" d="M 160.757812 37.859375 L 143.441406 37.859375 C 139.367188 37.859375 136.050781 34.542969 136.050781 30.46875 L 136.050781 13.152344 C 136.050781 9.078125 139.367188 5.761719 143.441406 5.761719 L 160.757812 5.761719 C 164.832031 5.761719 168.148438 9.078125 168.148438 13.152344 L 168.148438 30.46875 C 168.148438 34.542969 164.832031 37.859375 160.757812 37.859375 Z M 143.441406 6.917969 C 140.003906 6.917969 137.207031 9.714844 137.207031 13.148438 L 137.207031 30.46875 C 137.207031 33.90625 140.003906 36.703125 143.441406 36.703125 L 160.757812 36.703125 C 164.195312 36.703125 166.992188 33.90625 166.992188 30.46875 L 166.992188 13.152344 C 166.992188 9.71875 164.195312 6.921875 160.757812 6.921875 L 143.441406 6.921875 Z M 143.441406 6.917969 " fill-opacity="1" fill-rule="nonzero"/></g><path fill="#3368dd" d="M 79.3125 57.835938 L 71.855469 57.835938 C 69.917969 57.835938 68.34375 56.261719 68.34375 54.324219 L 68.34375 46.871094 C 68.34375 44.933594 69.917969 43.359375 71.855469 43.359375 L 79.3125 43.359375 C 81.246094 43.359375 82.820312 44.933594 82.820312 46.871094 L 82.820312 54.324219 C 82.820312 56.261719 81.246094 57.835938 79.3125 57.835938 Z M 71.855469 44.519531 C 70.558594 44.519531 69.5 45.578125 69.5 46.875 L 69.5 54.328125 C 69.5 55.625 70.558594 56.683594 71.855469 56.683594 L 79.3125 56.683594 C 80.609375 56.683594 81.664062 55.625 81.664062 54.328125 L 81.664062 46.875 C 81.664062 45.578125 80.609375 44.519531 79.3125 44.519531 Z M 71.855469 44.519531 " fill-opacity="1" fill-rule="nonzero"/><g clip-path="url(#fa65b361a4)"><path fill="#3368dd" d="M 64.441406 97.183594 L 53.050781 97.183594 C 50.257812 97.183594 47.988281 94.910156 47.988281 92.117188 L 47.988281 80.726562 C 47.988281 77.933594 50.257812 75.664062 53.050781 75.664062 L 64.441406 75.664062 C 67.234375 75.664062 69.503906 77.933594 69.503906 80.726562 L 69.503906 92.117188 C 69.5 94.910156 67.234375 97.183594 64.441406 97.183594 Z M 53.050781 76.824219 C 50.898438 76.824219 49.148438 78.574219 49.148438 80.726562 L 49.148438 92.117188 C 49.148438 94.273438 50.898438 96.023438 53.050781 96.023438 L 64.441406 96.023438 C 66.59375 96.023438 68.34375 94.273438 68.34375 92.117188 L 68.34375 80.726562 C 68.34375 78.574219 66.59375 76.824219 64.441406 76.824219 Z M 53.050781 76.824219 " fill-opacity="1" fill-rule="nonzero"/></g><g clip-path="url(#2ec4d45a7a)"><path fill="#3368dd" d="M 34.097656 68.824219 L 26.640625 68.824219 C 24.703125 68.824219 23.128906 67.25 23.128906 65.3125 L 23.128906 57.859375 C 23.128906 55.921875 24.703125 54.347656 26.640625 54.347656 L 34.097656 54.347656 C 36.03125 54.347656 37.605469 55.921875 37.605469 57.859375 L 37.605469 65.3125 C 37.605469 67.25 36.03125 68.824219 34.097656 68.824219 Z M 26.640625 55.503906 C 25.34375 55.503906 24.285156 56.5625 24.285156 57.859375 L 24.285156 65.3125 C 24.285156 66.609375 25.34375 67.667969 26.640625 67.667969 L 34.097656 67.667969 C 35.394531 67.667969 36.449219 66.609375 36.449219 65.3125 L 36.449219 57.859375 C 36.449219 56.5625 35.394531 55.503906 34.097656 55.503906 Z M 26.640625 55.503906 " fill-opacity="1" fill-rule="nonzero"/></g></g></g></svg>