<svg xmlns="http://www.w3.org/2000/svg" xmlns:xlink="http://www.w3.org/1999/xlink" width="500" zoomAndPan="magnify" viewBox="0 0 375 374.999991" height="500" preserveAspectRatio="xMidYMid meet" version="1.0"><defs><clipPath id="a1f52adf72"><path d="M 21 187.5 L 159.375 187.5 L 159.375 370.5 L 21 370.5 Z M 21 187.5 " clip-rule="nonzero"/></clipPath><clipPath id="75af0503b4"><path d="M 177 4.550781 L 219 4.550781 L 219 46 L 177 46 Z M 177 4.550781 " clip-rule="nonzero"/></clipPath><clipPath id="e3bedaca91"><path d="M 304 13 L 365.808594 13 L 365.808594 75 L 304 75 Z M 304 13 " clip-rule="nonzero"/></clipPath><clipPath id="ebc2698eb9"><path d="M 137 146 L 178 146 L 178 187.550781 L 137 187.550781 Z M 137 146 " clip-rule="nonzero"/></clipPath><clipPath id="2253315a9a"><path d="M 89.808594 106 L 118 106 L 118 134 L 89.808594 134 Z M 89.808594 106 " clip-rule="nonzero"/></clipPath><clipPath id="c31c6514b8"><path d="M 236 211.359375 L 267 211.359375 L 267 242 L 236 242 Z M 236 211.359375 " clip-rule="nonzero"/></clipPath><clipPath id="c33f0248f6"><path d="M 329 218 L 374.816406 218 L 374.816406 264 L 329 264 Z M 329 218 " clip-rule="nonzero"/></clipPath><clipPath id="8d60f825c1"><path d="M 206 316 L 237 316 L 237 346.359375 L 206 346.359375 Z M 206 316 " clip-rule="nonzero"/></clipPath><clipPath id="6bca5c1297"><path d="M 171.566406 286 L 192 286 L 192 307 L 171.566406 307 Z M 171.566406 286 " clip-rule="nonzero"/></clipPath></defs><path fill="#79cee8" d="M 95.351562 273.351562 C 95.351562 272.625 95.421875 271.910156 95.5625 271.199219 C 95.703125 270.488281 95.914062 269.796875 96.191406 269.128906 C 96.46875 268.457031 96.808594 267.820312 97.210938 267.21875 C 97.613281 266.617188 98.070312 266.058594 98.582031 265.546875 C 99.09375 265.035156 99.652344 264.578125 100.253906 264.175781 C 100.859375 263.773438 101.496094 263.433594 102.164062 263.15625 C 102.832031 262.878906 103.523438 262.667969 104.234375 262.527344 C 104.945312 262.386719 105.664062 262.316406 106.386719 262.316406 C 107.113281 262.316406 107.828125 262.386719 108.539062 262.527344 C 109.25 262.667969 109.941406 262.878906 110.609375 263.15625 C 111.28125 263.433594 111.914062 263.773438 112.519531 264.175781 C 113.121094 264.578125 113.679688 265.035156 114.191406 265.546875 C 114.703125 266.058594 115.160156 266.617188 115.5625 267.21875 C 115.964844 267.820312 116.304688 268.457031 116.582031 269.128906 C 116.859375 269.796875 117.070312 270.488281 117.210938 271.199219 C 117.351562 271.910156 117.421875 272.625 117.421875 273.351562 C 117.421875 274.074219 117.351562 274.792969 117.210938 275.503906 C 117.070312 276.214844 116.859375 276.90625 116.582031 277.574219 C 116.304688 278.242188 115.964844 278.878906 115.5625 279.480469 C 115.160156 280.085938 114.703125 280.640625 114.191406 281.15625 C 113.679688 281.667969 113.121094 282.125 112.519531 282.527344 C 111.914062 282.929688 111.28125 283.269531 110.609375 283.546875 C 109.941406 283.824219 109.25 284.035156 108.539062 284.175781 C 107.828125 284.316406 107.113281 284.386719 106.386719 284.386719 C 105.664062 284.386719 104.945312 284.316406 104.234375 284.175781 C 103.523438 284.035156 102.832031 283.824219 102.164062 283.546875 C 101.496094 283.269531 100.859375 282.929688 100.253906 282.527344 C 99.652344 282.125 99.09375 281.667969 98.582031 281.15625 C 98.070312 280.640625 97.613281 280.085938 97.210938 279.480469 C 96.808594 278.878906 96.46875 278.242188 96.191406 277.574219 C 95.914062 276.90625 95.703125 276.214844 95.5625 275.503906 C 95.421875 274.792969 95.351562 274.074219 95.351562 273.351562 Z M 79.089844 267.539062 C 79.570312 267.539062 80.046875 267.492188 80.519531 267.398438 C 80.992188 267.304688 81.449219 267.164062 81.894531 266.980469 C 82.335938 266.796875 82.757812 266.570312 83.160156 266.304688 C 83.558594 266.035156 83.929688 265.734375 84.269531 265.394531 C 84.609375 265.054688 84.910156 264.683594 85.179688 264.285156 C 85.445312 263.882812 85.671875 263.460938 85.855469 263.019531 C 86.039062 262.574219 86.179688 262.117188 86.273438 261.644531 C 86.367188 261.171875 86.414062 260.695312 86.414062 260.214844 C 86.414062 259.734375 86.367188 259.257812 86.273438 258.789062 C 86.179688 258.316406 86.039062 257.859375 85.855469 257.414062 C 85.671875 256.96875 85.445312 256.546875 85.179688 256.148438 C 84.910156 255.75 84.609375 255.378906 84.269531 255.039062 C 83.929688 254.699219 83.558594 254.394531 83.160156 254.128906 C 82.757812 253.863281 82.335938 253.636719 81.894531 253.453125 C 81.449219 253.269531 80.992188 253.128906 80.519531 253.035156 C 80.046875 252.941406 79.570312 252.894531 79.089844 252.894531 C 78.609375 252.894531 78.132812 252.941406 77.664062 253.035156 C 77.191406 253.128906 76.734375 253.269531 76.289062 253.453125 C 75.847656 253.636719 75.421875 253.863281 75.023438 254.128906 C 74.625 254.394531 74.253906 254.699219 73.914062 255.039062 C 73.574219 255.378906 73.269531 255.75 73.003906 256.148438 C 72.738281 256.546875 72.511719 256.96875 72.328125 257.414062 C 72.144531 257.859375 72.003906 258.316406 71.910156 258.789062 C 71.816406 259.257812 71.769531 259.734375 71.769531 260.214844 C 71.769531 260.695312 71.816406 261.171875 71.910156 261.644531 C 72.003906 262.117188 72.144531 262.574219 72.328125 263.019531 C 72.511719 263.460938 72.738281 263.882812 73.003906 264.285156 C 73.269531 264.683594 73.574219 265.054688 73.914062 265.394531 C 74.253906 265.734375 74.625 266.035156 75.023438 266.304688 C 75.421875 266.570312 75.84375 266.796875 76.289062 266.980469 C 76.734375 267.164062 77.191406 267.304688 77.664062 267.398438 C 78.132812 267.492188 78.609375 267.539062 79.089844 267.539062 Z M 76.523438 301.078125 C 77.308594 301.078125 78.082031 301 78.847656 300.847656 C 79.613281 300.695312 80.359375 300.46875 81.082031 300.171875 C 81.804688 299.871094 82.488281 299.503906 83.140625 299.070312 C 83.789062 298.636719 84.390625 298.144531 84.945312 297.589844 C 85.496094 297.039062 85.988281 296.4375 86.425781 295.785156 C 86.859375 295.136719 87.226562 294.449219 87.523438 293.726562 C 87.824219 293.007812 88.050781 292.261719 88.203125 291.496094 C 88.355469 290.726562 88.429688 289.953125 88.429688 289.171875 C 88.429688 288.390625 88.355469 287.617188 88.203125 286.851562 C 88.050781 286.082031 87.824219 285.339844 87.523438 284.617188 C 87.226562 283.894531 86.859375 283.207031 86.425781 282.558594 C 85.988281 281.90625 85.496094 281.304688 84.941406 280.753906 C 84.390625 280.199219 83.789062 279.707031 83.140625 279.273438 C 82.488281 278.839844 81.804688 278.472656 81.082031 278.171875 C 80.359375 277.875 79.613281 277.648438 78.847656 277.496094 C 78.082031 277.34375 77.308594 277.265625 76.523438 277.265625 C 75.742188 277.265625 74.96875 277.34375 74.203125 277.496094 C 73.4375 277.648438 72.691406 277.875 71.96875 278.171875 C 71.246094 278.472656 70.5625 278.839844 69.910156 279.273438 C 69.261719 279.707031 68.660156 280.199219 68.105469 280.753906 C 67.554688 281.304688 67.058594 281.90625 66.625 282.558594 C 66.191406 283.207031 65.824219 283.894531 65.527344 284.617188 C 65.226562 285.339844 65 286.082031 64.847656 286.847656 C 64.695312 287.617188 64.621094 288.390625 64.621094 289.171875 C 64.621094 289.953125 64.699219 290.726562 64.851562 291.492188 C 65.003906 292.261719 65.230469 293.003906 65.53125 293.726562 C 65.828125 294.449219 66.195312 295.132812 66.628906 295.78125 C 67.066406 296.433594 67.558594 297.035156 68.109375 297.585938 C 68.664062 298.140625 69.265625 298.632812 69.914062 299.066406 C 70.5625 299.5 71.25 299.867188 71.972656 300.167969 C 72.691406 300.46875 73.4375 300.695312 74.203125 300.847656 C 74.96875 301 75.742188 301.078125 76.523438 301.078125 Z M 137.6875 293.894531 C 137.578125 293.246094 137.363281 292.632812 137.042969 292.058594 C 136.71875 291.484375 136.304688 290.984375 135.804688 290.554688 C 135.300781 290.128906 134.742188 289.800781 134.125 289.570312 C 133.503906 289.339844 132.867188 289.226562 132.207031 289.222656 L 97.605469 289.222656 C 97.425781 289.226562 97.253906 289.261719 97.085938 289.328125 C 96.921875 289.398438 96.773438 289.496094 96.640625 289.621094 C 96.511719 289.746094 96.410156 289.890625 96.335938 290.054688 C 96.261719 290.21875 96.21875 290.390625 96.210938 290.570312 C 96.167969 291.1875 96.09375 291.796875 95.992188 292.40625 C 95.894531 293.015625 95.761719 293.617188 95.605469 294.214844 C 95.449219 294.8125 95.261719 295.398438 95.050781 295.980469 C 94.835938 296.558594 94.597656 297.125 94.332031 297.683594 C 94.066406 298.242188 93.773438 298.785156 93.457031 299.3125 C 93.140625 299.84375 92.796875 300.355469 92.433594 300.855469 C 92.066406 301.351562 91.679688 301.832031 91.269531 302.292969 C 90.859375 302.753906 90.429688 303.195312 89.976562 303.613281 C 89.527344 304.035156 89.054688 304.433594 88.566406 304.808594 C 88.078125 305.1875 87.570312 305.539062 87.050781 305.867188 C 86.527344 306.199219 85.992188 306.503906 85.441406 306.78125 C 84.890625 307.058594 84.328125 307.3125 83.753906 307.539062 C 83.179688 307.765625 82.597656 307.960938 82.003906 308.132812 C 81.410156 308.304688 80.808594 308.449219 80.203125 308.5625 C 79.597656 308.679688 78.988281 308.765625 78.371094 308.824219 C 77.757812 308.878906 77.140625 308.910156 76.523438 308.910156 C 75.90625 308.910156 75.292969 308.878906 74.675781 308.824219 C 74.0625 308.765625 73.453125 308.679688 72.847656 308.5625 C 72.238281 308.449219 71.640625 308.304688 71.046875 308.132812 C 70.453125 307.960938 69.871094 307.765625 69.296875 307.539062 C 68.722656 307.3125 68.160156 307.058594 67.609375 306.78125 C 67.058594 306.503906 66.523438 306.199219 66 305.867188 C 65.476562 305.539062 64.972656 305.1875 64.484375 304.808594 C 63.996094 304.433594 63.523438 304.035156 63.074219 303.613281 C 62.621094 303.195312 62.191406 302.753906 61.78125 302.292969 C 61.371094 301.832031 60.980469 301.351562 60.617188 300.855469 C 60.25 300.355469 59.910156 299.84375 59.59375 299.3125 C 59.277344 298.785156 58.984375 298.242188 58.71875 297.683594 C 58.453125 297.125 58.214844 296.558594 58 295.980469 C 57.789062 295.398438 57.601562 294.8125 57.445312 294.214844 C 57.285156 293.617188 57.15625 293.015625 57.054688 292.40625 C 56.957031 291.796875 56.882812 291.1875 56.839844 290.570312 C 56.832031 290.390625 56.789062 290.21875 56.714844 290.054688 C 56.640625 289.890625 56.539062 289.746094 56.40625 289.621094 C 56.277344 289.496094 56.128906 289.398438 55.964844 289.328125 C 55.796875 289.261719 55.625 289.226562 55.441406 289.222656 L 48.808594 289.222656 C 48.15625 289.222656 47.523438 289.335938 46.90625 289.558594 C 46.292969 289.78125 45.734375 290.105469 45.234375 290.527344 C 44.734375 290.949219 44.320312 291.441406 43.996094 292.011719 C 43.671875 292.578125 43.453125 293.183594 43.34375 293.828125 C 42.757812 297.304688 42.550781 300.804688 42.730469 304.328125 C 43.929688 328.289062 63.167969 347.933594 87.105469 349.589844 C 88.003906 349.652344 88.90625 349.691406 89.808594 349.703125 C 90.707031 349.714844 91.609375 349.703125 92.511719 349.664062 C 93.410156 349.625 94.3125 349.5625 95.207031 349.472656 C 96.105469 349.382812 97 349.269531 97.890625 349.128906 C 98.78125 348.988281 99.667969 348.824219 100.546875 348.636719 C 101.429688 348.445312 102.304688 348.230469 103.175781 347.992188 C 104.042969 347.753906 104.90625 347.488281 105.761719 347.199219 C 106.617188 346.914062 107.460938 346.601562 108.296875 346.265625 C 109.132812 345.929688 109.960938 345.570312 110.777344 345.1875 C 111.59375 344.804688 112.398438 344.398438 113.195312 343.972656 C 113.988281 343.542969 114.769531 343.09375 115.535156 342.621094 C 116.304688 342.148438 117.058594 341.65625 117.800781 341.140625 C 118.539062 340.625 119.265625 340.089844 119.976562 339.535156 C 120.683594 338.980469 121.378906 338.402344 122.058594 337.808594 C 122.734375 337.214844 123.394531 336.601562 124.039062 335.96875 C 124.679688 335.335938 125.304688 334.6875 125.910156 334.019531 C 126.519531 333.351562 127.105469 332.667969 127.671875 331.964844 C 128.238281 331.265625 128.785156 330.550781 129.3125 329.816406 C 129.839844 329.085938 130.347656 328.339844 130.832031 327.578125 C 131.316406 326.820312 131.78125 326.046875 132.222656 325.261719 C 132.664062 324.472656 133.082031 323.675781 133.476562 322.867188 C 133.875 322.054688 134.246094 321.234375 134.597656 320.402344 C 134.945312 319.574219 135.273438 318.730469 135.574219 317.882812 C 135.878906 317.035156 136.15625 316.175781 136.410156 315.3125 C 136.664062 314.445312 136.894531 313.574219 137.097656 312.695312 C 137.300781 311.816406 137.480469 310.933594 137.636719 310.046875 C 137.792969 309.15625 137.921875 308.265625 138.027344 307.371094 C 138.128906 306.472656 138.207031 305.574219 138.261719 304.675781 C 138.316406 303.777344 138.34375 302.875 138.347656 301.972656 C 138.351562 301.070312 138.328125 300.171875 138.277344 299.269531 C 138.230469 298.371094 138.15625 297.472656 138.058594 296.574219 C 137.960938 295.679688 137.835938 294.785156 137.6875 293.894531 Z M 137.6875 293.894531 " fill-opacity="1" fill-rule="nonzero"/><g clip-path="url(#a1f52adf72)"><path fill="#3368dd" d="M 115.9375 195.347656 C 116.414062 195.347656 116.890625 195.398438 117.359375 195.496094 C 117.828125 195.597656 118.28125 195.742188 118.71875 195.9375 C 119.160156 196.132812 119.570312 196.371094 119.960938 196.652344 C 120.347656 196.933594 120.703125 197.25 121.027344 197.605469 C 121.347656 197.960938 121.628906 198.34375 121.871094 198.757812 C 122.113281 199.175781 122.308594 199.609375 122.460938 200.0625 C 122.609375 200.519531 122.710938 200.984375 122.765625 201.460938 C 122.816406 201.9375 122.820312 202.414062 122.773438 202.890625 C 122.433594 206.464844 119.230469 209.085938 115.640625 209.085938 L 114.957031 209.085938 C 114.628906 209.085938 114.308594 209.117188 113.988281 209.179688 C 113.667969 209.246094 113.359375 209.339844 113.058594 209.464844 C 112.757812 209.589844 112.472656 209.742188 112.203125 209.921875 C 111.929688 210.101562 111.679688 210.308594 111.449219 210.539062 C 111.21875 210.769531 111.015625 211.019531 110.832031 211.289062 C 110.652344 211.558594 110.5 211.84375 110.375 212.144531 C 110.25 212.445312 110.15625 212.757812 110.09375 213.078125 C 110.03125 213.394531 109.996094 213.71875 109.996094 214.042969 L 109.996094 239.269531 C 110 239.765625 110.074219 240.25 110.21875 240.722656 C 110.367188 241.199219 110.582031 241.640625 110.859375 242.050781 C 111.140625 242.460938 111.472656 242.820312 111.863281 243.128906 C 112.25 243.4375 112.675781 243.683594 113.136719 243.863281 C 114.78125 244.515625 116.394531 245.238281 117.980469 246.03125 C 119.5625 246.820312 121.105469 247.679688 122.617188 248.605469 C 124.125 249.53125 125.589844 250.519531 127.011719 251.570312 C 128.433594 252.621094 129.808594 253.734375 131.136719 254.902344 C 132.464844 256.074219 133.738281 257.300781 134.960938 258.582031 C 136.179688 259.859375 137.34375 261.191406 138.449219 262.574219 C 139.554688 263.953125 140.601562 265.378906 141.582031 266.851562 C 142.566406 268.324219 143.480469 269.835938 144.335938 271.386719 C 145.1875 272.9375 145.96875 274.519531 146.683594 276.140625 C 147.398438 277.757812 148.042969 279.40625 148.617188 281.078125 C 149.1875 282.753906 149.6875 284.449219 150.113281 286.167969 C 150.542969 287.882812 150.890625 289.617188 151.167969 291.363281 C 151.445312 293.113281 151.644531 294.867188 151.769531 296.632812 C 151.894531 298.398438 151.941406 300.164062 151.914062 301.933594 C 151.886719 303.703125 151.78125 305.46875 151.601562 307.226562 C 151.421875 308.988281 151.164062 310.738281 150.832031 312.476562 C 150.5 314.214844 150.09375 315.933594 149.613281 317.636719 C 149.132812 319.339844 148.582031 321.019531 147.953125 322.675781 C 147.328125 324.328125 146.632812 325.953125 145.867188 327.550781 C 145.101562 329.144531 144.265625 330.703125 143.367188 332.226562 C 142.464844 333.75 141.5 335.230469 140.472656 336.671875 C 139.441406 338.109375 138.351562 339.5 137.203125 340.847656 C 136.054688 342.191406 134.847656 343.484375 133.585938 344.726562 C 132.328125 345.96875 131.015625 347.152344 129.652344 348.28125 C 128.289062 349.40625 126.878906 350.476562 125.421875 351.480469 C 123.964844 352.488281 122.46875 353.429688 120.933594 354.304688 C 119.394531 355.179688 117.824219 355.988281 116.21875 356.730469 C 114.609375 357.472656 112.972656 358.140625 111.308594 358.742188 C 109.644531 359.339844 107.957031 359.867188 106.246094 360.320312 C 104.535156 360.773438 102.808594 361.152344 101.066406 361.457031 C 99.324219 361.761719 97.570312 361.988281 95.808594 362.140625 C 94.042969 362.292969 92.277344 362.371094 90.507812 362.371094 C 89.699219 362.371094 88.878906 362.355469 88.0625 362.324219 C 56.523438 361.097656 30.738281 335.609375 29.171875 304.085938 C 29.089844 302.496094 29.070312 300.90625 29.113281 299.3125 C 29.15625 297.71875 29.261719 296.132812 29.429688 294.546875 C 29.59375 292.964844 29.820312 291.386719 30.109375 289.820312 C 30.398438 288.253906 30.75 286.703125 31.160156 285.164062 C 31.570312 283.625 32.039062 282.101562 32.566406 280.601562 C 33.09375 279.097656 33.679688 277.617188 34.324219 276.160156 C 34.964844 274.703125 35.664062 273.273438 36.417969 271.871094 C 37.171875 270.464844 37.980469 269.09375 38.84375 267.753906 C 39.703125 266.414062 40.617188 265.109375 41.578125 263.839844 C 42.542969 262.570312 43.550781 261.34375 44.609375 260.152344 C 45.667969 258.960938 46.773438 257.8125 47.917969 256.710938 C 49.066406 255.605469 50.257812 254.546875 51.484375 253.535156 C 52.714844 252.523438 53.984375 251.558594 55.289062 250.644531 C 56.59375 249.730469 57.933594 248.871094 59.304688 248.0625 C 60.675781 247.253906 62.078125 246.496094 63.507812 245.796875 C 64.9375 245.097656 66.394531 244.453125 67.875 243.867188 C 68.339844 243.683594 68.765625 243.4375 69.152344 243.128906 C 69.539062 242.820312 69.875 242.460938 70.15625 242.050781 C 70.4375 241.640625 70.648438 241.199219 70.796875 240.722656 C 70.945312 240.25 71.019531 239.765625 71.019531 239.265625 L 71.019531 214.042969 C 71.019531 213.71875 70.988281 213.394531 70.925781 213.078125 C 70.859375 212.757812 70.765625 212.445312 70.640625 212.144531 C 70.515625 211.84375 70.363281 211.558594 70.183594 211.289062 C 70.003906 211.019531 69.796875 210.769531 69.566406 210.539062 C 69.335938 210.308594 69.085938 210.101562 68.816406 209.921875 C 68.546875 209.742188 68.261719 209.589844 67.960938 209.464844 C 67.660156 209.339844 67.347656 209.246094 67.027344 209.179688 C 66.710938 209.117188 66.386719 209.085938 66.0625 209.085938 C 65.582031 209.085938 65.109375 209.035156 64.640625 208.9375 C 64.171875 208.835938 63.714844 208.691406 63.277344 208.496094 C 62.839844 208.300781 62.425781 208.066406 62.039062 207.785156 C 61.648438 207.503906 61.292969 207.183594 60.972656 206.828125 C 60.648438 206.472656 60.367188 206.089844 60.128906 205.675781 C 59.886719 205.261719 59.691406 204.828125 59.539062 204.371094 C 59.390625 203.914062 59.289062 203.449219 59.234375 202.972656 C 59.183594 202.496094 59.179688 202.019531 59.226562 201.542969 C 59.566406 197.972656 62.769531 195.347656 66.355469 195.347656 L 115.9375 195.347656 M 115.9375 187.515625 L 66.355469 187.515625 C 58.695312 187.515625 52.140625 193.351562 51.429688 200.800781 C 51.34375 201.699219 51.335938 202.597656 51.417969 203.496094 C 51.496094 204.398438 51.65625 205.28125 51.898438 206.152344 C 52.140625 207.023438 52.457031 207.863281 52.855469 208.675781 C 53.253906 209.488281 53.71875 210.253906 54.257812 210.980469 C 54.796875 211.707031 55.398438 212.375 56.058594 212.988281 C 56.722656 213.605469 57.433594 214.152344 58.199219 214.636719 C 58.960938 215.121094 59.761719 215.527344 60.601562 215.863281 C 61.4375 216.199219 62.300781 216.457031 63.1875 216.632812 L 63.1875 237.328125 C 61.574219 238.023438 59.992188 238.777344 58.4375 239.589844 C 56.882812 240.402344 55.359375 241.273438 53.871094 242.203125 C 52.382812 243.132812 50.929688 244.117188 49.515625 245.15625 C 48.101562 246.195312 46.730469 247.289062 45.398438 248.433594 C 44.066406 249.574219 42.78125 250.769531 41.542969 252.007812 C 40.300781 253.25 39.109375 254.539062 37.964844 255.871094 C 36.824219 257.203125 35.734375 258.574219 34.695312 259.988281 C 33.65625 261.40625 32.671875 262.855469 31.746094 264.347656 C 30.816406 265.835938 29.945312 267.359375 29.132812 268.914062 C 28.320312 270.46875 27.570312 272.054688 26.878906 273.667969 C 26.1875 275.277344 25.554688 276.914062 24.988281 278.578125 C 24.421875 280.238281 23.917969 281.917969 23.476562 283.617188 C 23.035156 285.316406 22.660156 287.027344 22.351562 288.753906 C 22.042969 290.484375 21.796875 292.21875 21.621094 293.964844 C 21.441406 295.710938 21.332031 297.460938 21.285156 299.214844 C 21.242188 300.96875 21.261719 302.722656 21.351562 304.476562 C 23.113281 339.925781 52.28125 368.769531 87.757812 370.148438 C 88.671875 370.183594 89.597656 370.203125 90.507812 370.203125 C 128.691406 370.203125 159.753906 339.136719 159.753906 300.957031 C 159.753906 299.273438 159.691406 297.59375 159.570312 295.917969 C 159.449219 294.242188 159.265625 292.570312 159.019531 290.90625 C 158.777344 289.242188 158.472656 287.589844 158.109375 285.949219 C 157.742188 284.304688 157.320312 282.679688 156.835938 281.070312 C 156.351562 279.457031 155.8125 277.867188 155.214844 276.296875 C 154.613281 274.722656 153.957031 273.175781 153.246094 271.652344 C 152.535156 270.128906 151.769531 268.632812 150.949219 267.167969 C 150.128906 265.699219 149.253906 264.261719 148.328125 262.859375 C 147.40625 261.453125 146.429688 260.085938 145.40625 258.753906 C 144.378906 257.417969 143.308594 256.125 142.1875 254.871094 C 141.070312 253.613281 139.90625 252.402344 138.699219 251.230469 C 137.488281 250.0625 136.242188 248.9375 134.953125 247.855469 C 133.664062 246.777344 132.335938 245.746094 130.972656 244.765625 C 129.605469 243.78125 128.207031 242.851562 126.773438 241.96875 C 125.34375 241.089844 123.878906 240.261719 122.386719 239.488281 C 120.894531 238.710938 119.375 237.992188 117.828125 237.328125 L 117.828125 216.757812 C 124.515625 215.773438 129.925781 210.363281 130.570312 203.636719 C 130.617188 203.125 130.640625 202.617188 130.636719 202.105469 C 130.632812 201.59375 130.601562 201.085938 130.546875 200.578125 C 130.488281 200.070312 130.40625 199.566406 130.296875 199.066406 C 130.1875 198.566406 130.050781 198.074219 129.890625 197.589844 C 129.730469 197.105469 129.542969 196.628906 129.332031 196.164062 C 129.121094 195.699219 128.886719 195.242188 128.628906 194.804688 C 128.371094 194.363281 128.09375 193.933594 127.789062 193.523438 C 127.488281 193.109375 127.164062 192.714844 126.820312 192.335938 C 126.476562 191.957031 126.113281 191.597656 125.734375 191.257812 C 125.351562 190.917969 124.957031 190.597656 124.539062 190.296875 C 124.125 190 123.699219 189.722656 123.253906 189.46875 C 122.8125 189.214844 122.355469 188.984375 121.886719 188.777344 C 121.421875 188.570312 120.945312 188.386719 120.457031 188.230469 C 119.972656 188.074219 119.476562 187.941406 118.976562 187.835938 C 118.476562 187.730469 117.972656 187.648438 117.464844 187.597656 C 116.957031 187.542969 116.449219 187.515625 115.9375 187.515625 Z M 115.9375 187.515625 " fill-opacity="1" fill-rule="nonzero"/></g><g clip-path="url(#75af0503b4)"><path fill="#3368dd" d="M 208.519531 45.414062 L 186.882812 45.414062 C 181.578125 45.414062 177.265625 41.101562 177.265625 35.800781 L 177.265625 14.167969 C 177.265625 8.863281 181.578125 4.550781 186.882812 4.550781 L 208.519531 4.550781 C 213.824219 4.550781 218.136719 8.863281 218.136719 14.167969 L 218.136719 35.804688 C 218.128906 41.101562 213.824219 45.414062 208.519531 45.414062 Z M 186.882812 6.746094 C 182.792969 6.746094 179.46875 10.070312 179.46875 14.160156 L 179.46875 35.800781 C 179.46875 39.886719 182.792969 43.210938 186.882812 43.210938 L 208.519531 43.210938 C 212.609375 43.210938 215.933594 39.886719 215.933594 35.800781 L 215.933594 14.167969 C 215.933594 10.078125 212.609375 6.753906 208.519531 6.753906 L 186.882812 6.753906 Z M 186.882812 6.746094 " fill-opacity="1" fill-rule="nonzero"/></g><path fill="#3368dd" d="M 279.804688 159.242188 L 239.828125 159.242188 C 230.550781 159.242188 223 151.691406 223 142.414062 L 223 102.4375 C 223 93.160156 230.550781 85.609375 239.828125 85.609375 L 279.804688 85.609375 C 289.082031 85.609375 296.632812 93.160156 296.632812 102.4375 L 296.632812 142.414062 C 296.632812 151.691406 289.082031 159.242188 279.804688 159.242188 Z M 239.828125 87.804688 C 231.765625 87.804688 225.195312 94.367188 225.195312 102.4375 L 225.195312 142.414062 C 225.195312 150.476562 231.757812 157.042969 239.828125 157.042969 L 279.804688 157.042969 C 287.867188 157.042969 294.433594 150.484375 294.433594 142.414062 L 294.433594 102.4375 C 294.433594 94.375 287.875 87.804688 279.804688 87.804688 Z M 239.828125 87.804688 " fill-opacity="1" fill-rule="nonzero"/><g clip-path="url(#e3bedaca91)"><path fill="#3368dd" d="M 351.320312 74.800781 L 318.429688 74.800781 C 310.691406 74.800781 304.390625 68.5 304.390625 60.761719 L 304.390625 27.875 C 304.390625 20.136719 310.691406 13.835938 318.429688 13.835938 L 351.320312 13.835938 C 359.058594 13.835938 365.359375 20.136719 365.359375 27.875 L 365.359375 60.761719 C 365.359375 68.5 359.058594 74.800781 351.320312 74.800781 Z M 318.429688 16.03125 C 311.898438 16.03125 306.589844 21.339844 306.589844 27.867188 L 306.589844 60.761719 C 306.589844 67.292969 311.898438 72.605469 318.429688 72.605469 L 351.320312 72.605469 C 357.851562 72.605469 363.160156 67.292969 363.160156 60.761719 L 363.160156 27.875 C 363.160156 21.347656 357.851562 16.039062 351.320312 16.039062 L 318.429688 16.039062 Z M 318.429688 16.03125 " fill-opacity="1" fill-rule="nonzero"/></g><path fill="#3368dd" d="M 196.613281 112.746094 L 182.453125 112.746094 C 178.773438 112.746094 175.785156 109.757812 175.785156 106.078125 L 175.785156 91.917969 C 175.785156 88.238281 178.773438 85.25 182.453125 85.25 L 196.613281 85.25 C 200.292969 85.25 203.28125 88.238281 203.28125 91.917969 L 203.28125 106.078125 C 203.28125 109.757812 200.292969 112.746094 196.613281 112.746094 Z M 182.453125 87.453125 C 179.988281 87.453125 177.980469 89.460938 177.980469 91.925781 L 177.980469 106.085938 C 177.980469 108.550781 179.988281 110.558594 182.453125 110.558594 L 196.613281 110.558594 C 199.078125 110.558594 201.085938 108.550781 201.085938 106.085938 L 201.085938 91.925781 C 201.085938 89.460938 199.078125 87.453125 196.613281 87.453125 Z M 182.453125 87.453125 " fill-opacity="1" fill-rule="nonzero"/><g clip-path="url(#ebc2698eb9)"><path fill="#3368dd" d="M 168.371094 187.484375 L 146.730469 187.484375 C 141.429688 187.484375 137.113281 183.171875 137.113281 177.867188 L 137.113281 156.226562 C 137.113281 150.925781 141.429688 146.613281 146.730469 146.613281 L 168.371094 146.613281 C 173.675781 146.613281 177.988281 150.925781 177.988281 156.226562 L 177.988281 177.867188 C 177.980469 183.171875 173.675781 187.484375 168.371094 187.484375 Z M 146.730469 148.816406 C 142.640625 148.816406 139.316406 152.140625 139.316406 156.226562 L 139.316406 177.867188 C 139.316406 181.957031 142.640625 185.28125 146.730469 185.28125 L 168.371094 185.28125 C 172.460938 185.28125 175.785156 181.957031 175.785156 177.867188 L 175.785156 156.226562 C 175.785156 152.140625 172.460938 148.816406 168.371094 148.816406 Z M 146.730469 148.816406 " fill-opacity="1" fill-rule="nonzero"/></g><g clip-path="url(#2253315a9a)"><path fill="#3368dd" d="M 110.726562 133.621094 L 96.566406 133.621094 C 92.890625 133.621094 89.898438 130.628906 89.898438 126.953125 L 89.898438 112.789062 C 89.898438 109.113281 92.890625 106.121094 96.566406 106.121094 L 110.726562 106.121094 C 114.40625 106.121094 117.398438 109.113281 117.398438 112.789062 L 117.398438 126.953125 C 117.398438 130.628906 114.40625 133.621094 110.726562 133.621094 Z M 96.566406 108.316406 C 94.101562 108.316406 92.09375 110.328125 92.09375 112.789062 L 92.09375 126.953125 C 92.09375 129.414062 94.101562 131.425781 96.566406 131.425781 L 110.726562 131.425781 C 113.191406 131.425781 115.199219 129.414062 115.199219 126.953125 L 115.199219 112.789062 C 115.199219 110.328125 113.191406 108.316406 110.726562 108.316406 Z M 96.566406 108.316406 " fill-opacity="1" fill-rule="nonzero"/></g><g clip-path="url(#c31c6514b8)"><path fill="#3368dd" d="M 259.167969 241.515625 L 243.199219 241.515625 C 239.285156 241.515625 236.101562 238.332031 236.101562 234.421875 L 236.101562 218.457031 C 236.101562 214.542969 239.285156 211.359375 243.199219 211.359375 L 259.167969 211.359375 C 263.082031 211.359375 266.265625 214.542969 266.265625 218.457031 L 266.265625 234.425781 C 266.257812 238.332031 263.082031 241.515625 259.167969 241.515625 Z M 243.199219 212.980469 C 240.183594 212.980469 237.730469 215.433594 237.730469 218.453125 L 237.730469 234.421875 C 237.730469 237.4375 240.183594 239.890625 243.199219 239.890625 L 259.167969 239.890625 C 262.1875 239.890625 264.636719 237.4375 264.636719 234.421875 L 264.636719 218.457031 C 264.636719 215.4375 262.1875 212.988281 259.167969 212.988281 L 243.199219 212.988281 Z M 243.199219 212.980469 " fill-opacity="1" fill-rule="nonzero"/></g><path fill="#3368dd" d="M 311.769531 325.511719 L 282.269531 325.511719 C 275.425781 325.511719 269.851562 319.941406 269.851562 313.09375 L 269.851562 283.59375 C 269.851562 276.75 275.425781 271.175781 282.269531 271.175781 L 311.769531 271.175781 C 318.617188 271.175781 324.1875 276.75 324.1875 283.59375 L 324.1875 313.09375 C 324.1875 319.941406 318.617188 325.511719 311.769531 325.511719 Z M 282.269531 272.796875 C 276.320312 272.796875 271.472656 277.640625 271.472656 283.59375 L 271.472656 313.09375 C 271.472656 319.046875 276.316406 323.890625 282.269531 323.890625 L 311.769531 323.890625 C 317.722656 323.890625 322.566406 319.050781 322.566406 313.09375 L 322.566406 283.59375 C 322.566406 277.644531 317.726562 272.796875 311.769531 272.796875 Z M 282.269531 272.796875 " fill-opacity="1" fill-rule="nonzero"/><g clip-path="url(#c33f0248f6)"><path fill="#3368dd" d="M 364.542969 263.199219 L 340.273438 263.199219 C 334.5625 263.199219 329.914062 258.550781 329.914062 252.839844 L 329.914062 228.570312 C 329.914062 222.859375 334.5625 218.210938 340.273438 218.210938 L 364.542969 218.210938 C 370.253906 218.210938 374.90625 222.859375 374.90625 228.570312 L 374.90625 252.839844 C 374.90625 258.550781 370.253906 263.199219 364.542969 263.199219 Z M 340.273438 219.832031 C 335.453125 219.832031 331.535156 223.75 331.535156 228.566406 L 331.535156 252.839844 C 331.535156 257.660156 335.453125 261.582031 340.273438 261.582031 L 364.542969 261.582031 C 369.363281 261.582031 373.285156 257.660156 373.285156 252.839844 L 373.285156 228.570312 C 373.285156 223.757812 369.363281 219.835938 364.542969 219.835938 L 340.273438 219.835938 Z M 340.273438 219.832031 " fill-opacity="1" fill-rule="nonzero"/></g><path fill="#3368dd" d="M 250.382812 291.203125 L 239.929688 291.203125 C 237.21875 291.203125 235.011719 288.996094 235.011719 286.28125 L 235.011719 275.832031 C 235.011719 273.117188 237.21875 270.910156 239.929688 270.910156 L 250.382812 270.910156 C 253.09375 270.910156 255.300781 273.117188 255.300781 275.832031 L 255.300781 286.28125 C 255.300781 288.996094 253.09375 291.203125 250.382812 291.203125 Z M 239.929688 272.535156 C 238.113281 272.535156 236.628906 274.019531 236.628906 275.835938 L 236.628906 286.289062 C 236.628906 288.105469 238.113281 289.585938 239.929688 289.585938 L 250.382812 289.585938 C 252.199219 289.585938 253.683594 288.105469 253.683594 286.289062 L 253.683594 275.835938 C 253.683594 274.019531 252.199219 272.535156 250.382812 272.535156 Z M 239.929688 272.535156 " fill-opacity="1" fill-rule="nonzero"/><g clip-path="url(#8d60f825c1)"><path fill="#3368dd" d="M 229.539062 346.355469 L 213.570312 346.355469 C 209.65625 346.355469 206.472656 343.171875 206.472656 339.257812 L 206.472656 323.289062 C 206.472656 319.375 209.65625 316.191406 213.570312 316.191406 L 229.539062 316.191406 C 233.453125 316.191406 236.636719 319.375 236.636719 323.289062 L 236.636719 339.257812 C 236.628906 343.171875 233.453125 346.355469 229.539062 346.355469 Z M 213.570312 317.820312 C 210.554688 317.820312 208.101562 320.273438 208.101562 323.289062 L 208.101562 339.257812 C 208.101562 342.277344 210.554688 344.730469 213.570312 344.730469 L 229.539062 344.730469 C 232.558594 344.730469 235.011719 342.277344 235.011719 339.257812 L 235.011719 323.289062 C 235.011719 320.273438 232.558594 317.820312 229.539062 317.820312 Z M 213.570312 317.820312 " fill-opacity="1" fill-rule="nonzero"/></g><g clip-path="url(#6bca5c1297)"><path fill="#3368dd" d="M 187.003906 306.605469 L 176.550781 306.605469 C 173.839844 306.605469 171.632812 304.398438 171.632812 301.6875 L 171.632812 291.234375 C 171.632812 288.519531 173.839844 286.3125 176.550781 286.3125 L 187.003906 286.3125 C 189.714844 286.3125 191.925781 288.519531 191.925781 291.234375 L 191.925781 301.6875 C 191.925781 304.398438 189.714844 306.605469 187.003906 306.605469 Z M 176.550781 287.933594 C 174.734375 287.933594 173.253906 289.417969 173.253906 291.234375 L 173.253906 301.6875 C 173.253906 303.503906 174.734375 304.984375 176.550781 304.984375 L 187.003906 304.984375 C 188.820312 304.984375 190.304688 303.503906 190.304688 301.6875 L 190.304688 291.234375 C 190.304688 289.417969 188.820312 287.933594 187.003906 287.933594 Z M 176.550781 287.933594 " fill-opacity="1" fill-rule="nonzero"/></g></svg>