<svg xmlns="http://www.w3.org/2000/svg" xmlns:xlink="http://www.w3.org/1999/xlink" width="500" zoomAndPan="magnify" viewBox="0 0 375 374.999991" height="500" preserveAspectRatio="xMidYMid meet" version="1.0"><defs><g/><clipPath id="58c4aad2ed"><path d="M 13 157.816406 L 90.085938 157.816406 L 90.085938 259 L 13 259 Z M 13 157.816406 " clip-rule="nonzero"/></clipPath><clipPath id="08b9924113"><path d="M 41 115.414062 L 51 115.414062 L 51 125 L 41 125 Z M 41 115.414062 " clip-rule="nonzero"/></clipPath><clipPath id="b0b0fbdeca"><path d="M 68 117 L 82.003906 117 L 82.003906 131 L 68 131 Z M 68 117 " clip-rule="nonzero"/></clipPath><clipPath id="49c5a4a2dd"><path d="M 32 145 L 42 145 L 42 154.414062 L 32 154.414062 Z M 32 145 " clip-rule="nonzero"/></clipPath><clipPath id="f4bbb8c6e0"><path d="M 22.753906 137 L 29 137 L 29 144 L 22.753906 144 Z M 22.753906 137 " clip-rule="nonzero"/></clipPath></defs><path fill="#79cee8" d="M 54.585938 205.304688 C 54.585938 204.902344 54.625 204.507812 54.703125 204.113281 C 54.78125 203.71875 54.894531 203.339844 55.050781 202.96875 C 55.203125 202.597656 55.390625 202.246094 55.613281 201.914062 C 55.835938 201.578125 56.089844 201.269531 56.371094 200.988281 C 56.65625 200.703125 56.964844 200.453125 57.296875 200.230469 C 57.628906 200.007812 57.984375 199.816406 58.351562 199.664062 C 58.722656 199.511719 59.105469 199.394531 59.5 199.316406 C 59.890625 199.238281 60.289062 199.199219 60.6875 199.199219 C 61.089844 199.199219 61.488281 199.238281 61.878906 199.316406 C 62.273438 199.394531 62.65625 199.511719 63.023438 199.664062 C 63.394531 199.816406 63.746094 200.007812 64.082031 200.230469 C 64.414062 200.453125 64.722656 200.703125 65.007812 200.988281 C 65.289062 201.269531 65.542969 201.578125 65.765625 201.914062 C 65.988281 202.246094 66.175781 202.597656 66.328125 202.96875 C 66.484375 203.339844 66.597656 203.71875 66.675781 204.113281 C 66.753906 204.507812 66.792969 204.902344 66.792969 205.304688 C 66.792969 205.707031 66.753906 206.101562 66.675781 206.496094 C 66.597656 206.890625 66.484375 207.269531 66.328125 207.640625 C 66.175781 208.011719 65.988281 208.363281 65.765625 208.695312 C 65.542969 209.03125 65.289062 209.339844 65.007812 209.621094 C 64.722656 209.90625 64.414062 210.15625 64.082031 210.378906 C 63.746094 210.601562 63.394531 210.792969 63.023438 210.945312 C 62.65625 211.097656 62.273438 211.214844 61.878906 211.292969 C 61.488281 211.371094 61.089844 211.410156 60.6875 211.410156 C 60.289062 211.410156 59.890625 211.371094 59.5 211.292969 C 59.105469 211.214844 58.722656 211.097656 58.351562 210.945312 C 57.984375 210.792969 57.628906 210.601562 57.296875 210.378906 C 56.964844 210.15625 56.65625 209.90625 56.371094 209.621094 C 56.089844 209.339844 55.835938 209.03125 55.613281 208.695312 C 55.390625 208.363281 55.203125 208.011719 55.050781 207.640625 C 54.894531 207.269531 54.78125 206.890625 54.703125 206.496094 C 54.625 206.101562 54.585938 205.707031 54.585938 205.304688 Z M 45.589844 202.089844 C 45.855469 202.089844 46.121094 202.0625 46.378906 202.011719 C 46.640625 201.960938 46.894531 201.882812 47.140625 201.78125 C 47.386719 201.679688 47.617188 201.554688 47.839844 201.40625 C 48.0625 201.257812 48.265625 201.089844 48.453125 200.902344 C 48.640625 200.714844 48.808594 200.511719 48.957031 200.289062 C 49.105469 200.066406 49.230469 199.835938 49.332031 199.589844 C 49.433594 199.34375 49.511719 199.089844 49.5625 198.828125 C 49.613281 198.570312 49.640625 198.304688 49.640625 198.039062 C 49.640625 197.773438 49.613281 197.511719 49.5625 197.25 C 49.511719 196.988281 49.433594 196.734375 49.332031 196.488281 C 49.230469 196.242188 49.105469 196.011719 48.957031 195.789062 C 48.808594 195.566406 48.640625 195.363281 48.453125 195.175781 C 48.265625 194.988281 48.0625 194.820312 47.839844 194.671875 C 47.617188 194.523438 47.386719 194.398438 47.140625 194.296875 C 46.894531 194.195312 46.640625 194.117188 46.378906 194.066406 C 46.121094 194.015625 45.855469 193.988281 45.589844 193.988281 C 45.324219 193.988281 45.0625 194.015625 44.800781 194.066406 C 44.539062 194.117188 44.285156 194.195312 44.039062 194.296875 C 43.792969 194.398438 43.5625 194.523438 43.339844 194.671875 C 43.121094 194.820312 42.914062 194.988281 42.726562 195.175781 C 42.539062 195.363281 42.371094 195.566406 42.222656 195.789062 C 42.074219 196.011719 41.949219 196.242188 41.847656 196.488281 C 41.746094 196.734375 41.671875 196.988281 41.617188 197.25 C 41.566406 197.511719 41.539062 197.773438 41.539062 198.039062 C 41.539062 198.304688 41.566406 198.570312 41.617188 198.828125 C 41.671875 199.089844 41.746094 199.34375 41.847656 199.589844 C 41.949219 199.835938 42.074219 200.066406 42.222656 200.289062 C 42.371094 200.511719 42.539062 200.714844 42.726562 200.902344 C 42.914062 201.089844 43.121094 201.257812 43.339844 201.40625 C 43.5625 201.554688 43.792969 201.679688 44.039062 201.78125 C 44.285156 201.882812 44.539062 201.960938 44.800781 202.011719 C 45.0625 202.0625 45.324219 202.089844 45.589844 202.089844 Z M 44.171875 220.640625 C 44.601562 220.640625 45.03125 220.601562 45.457031 220.515625 C 45.878906 220.429688 46.292969 220.304688 46.691406 220.140625 C 47.089844 219.976562 47.46875 219.773438 47.828125 219.53125 C 48.1875 219.292969 48.523438 219.019531 48.828125 218.714844 C 49.132812 218.40625 49.40625 218.074219 49.644531 217.714844 C 49.886719 217.355469 50.089844 216.976562 50.253906 216.578125 C 50.421875 216.175781 50.546875 215.765625 50.628906 215.339844 C 50.714844 214.917969 50.757812 214.488281 50.757812 214.054688 C 50.757812 213.625 50.714844 213.195312 50.628906 212.773438 C 50.546875 212.347656 50.421875 211.9375 50.253906 211.535156 C 50.089844 211.136719 49.886719 210.757812 49.644531 210.398438 C 49.40625 210.039062 49.132812 209.707031 48.828125 209.398438 C 48.519531 209.09375 48.1875 208.820312 47.828125 208.582031 C 47.46875 208.339844 47.089844 208.136719 46.691406 207.972656 C 46.292969 207.808594 45.878906 207.683594 45.457031 207.597656 C 45.03125 207.511719 44.601562 207.472656 44.171875 207.472656 C 43.738281 207.472656 43.308594 207.511719 42.886719 207.597656 C 42.460938 207.683594 42.050781 207.808594 41.648438 207.972656 C 41.25 208.136719 40.871094 208.339844 40.511719 208.582031 C 40.152344 208.820312 39.820312 209.09375 39.515625 209.398438 C 39.207031 209.707031 38.933594 210.039062 38.695312 210.398438 C 38.453125 210.757812 38.25 211.136719 38.085938 211.535156 C 37.921875 211.9375 37.796875 212.347656 37.710938 212.773438 C 37.628906 213.195312 37.585938 213.625 37.585938 214.054688 C 37.585938 214.488281 37.628906 214.917969 37.710938 215.339844 C 37.796875 215.765625 37.921875 216.175781 38.089844 216.574219 C 38.253906 216.976562 38.457031 217.355469 38.695312 217.714844 C 38.9375 218.074219 39.210938 218.40625 39.515625 218.710938 C 39.820312 219.015625 40.152344 219.289062 40.511719 219.53125 C 40.871094 219.769531 41.253906 219.972656 41.652344 220.140625 C 42.050781 220.304688 42.460938 220.429688 42.886719 220.515625 C 43.308594 220.597656 43.738281 220.640625 44.171875 220.640625 Z M 78.003906 216.667969 C 77.945312 216.308594 77.824219 215.972656 77.644531 215.652344 C 77.464844 215.335938 77.238281 215.058594 76.960938 214.820312 C 76.683594 214.585938 76.375 214.402344 76.03125 214.277344 C 75.691406 214.148438 75.335938 214.085938 74.972656 214.085938 L 55.832031 214.085938 C 55.625 214.085938 55.449219 214.160156 55.296875 214.304688 C 55.148438 214.449219 55.070312 214.625 55.058594 214.828125 C 55.011719 215.511719 54.898438 216.183594 54.726562 216.847656 C 54.550781 217.507812 54.316406 218.148438 54.019531 218.765625 C 53.726562 219.382812 53.375 219.964844 52.96875 220.519531 C 52.566406 221.070312 52.113281 221.578125 51.613281 222.046875 C 51.109375 222.511719 50.570312 222.925781 49.992188 223.292969 C 49.414062 223.65625 48.804688 223.964844 48.167969 224.214844 C 47.53125 224.464844 46.878906 224.65625 46.207031 224.78125 C 45.535156 224.910156 44.855469 224.972656 44.171875 224.972656 C 43.484375 224.972656 42.808594 224.910156 42.136719 224.78125 C 41.464844 224.65625 40.808594 224.464844 40.171875 224.214844 C 39.535156 223.964844 38.925781 223.65625 38.347656 223.292969 C 37.769531 222.925781 37.230469 222.511719 36.730469 222.046875 C 36.230469 221.578125 35.777344 221.070312 35.371094 220.519531 C 34.964844 219.964844 34.617188 219.382812 34.320312 218.765625 C 34.027344 218.148438 33.789062 217.507812 33.617188 216.847656 C 33.441406 216.183594 33.328125 215.511719 33.28125 214.828125 C 33.269531 214.625 33.191406 214.449219 33.042969 214.304688 C 32.894531 214.160156 32.714844 214.085938 32.507812 214.085938 L 28.839844 214.085938 C 28.476562 214.085938 28.128906 214.144531 27.785156 214.269531 C 27.445312 214.394531 27.140625 214.574219 26.863281 214.804688 C 26.585938 215.039062 26.355469 215.3125 26.175781 215.625 C 25.996094 215.941406 25.875 216.277344 25.816406 216.632812 C 25.492188 218.554688 25.378906 220.492188 25.476562 222.4375 C 26.140625 235.695312 36.78125 246.5625 50.023438 247.476562 C 51.019531 247.546875 52.015625 247.5625 53.011719 247.519531 C 54.011719 247.476562 55.003906 247.378906 55.988281 247.222656 C 56.976562 247.066406 57.949219 246.859375 58.914062 246.59375 C 59.875 246.328125 60.820312 246.007812 61.746094 245.636719 C 62.671875 245.265625 63.574219 244.84375 64.453125 244.371094 C 65.332031 243.894531 66.183594 243.375 67 242.804688 C 67.820312 242.234375 68.605469 241.621094 69.355469 240.960938 C 70.105469 240.300781 70.816406 239.601562 71.488281 238.863281 C 72.160156 238.125 72.789062 237.351562 73.371094 236.539062 C 73.957031 235.730469 74.492188 234.890625 74.980469 234.019531 C 75.46875 233.148438 75.90625 232.253906 76.292969 231.332031 C 76.679688 230.414062 77.015625 229.472656 77.296875 228.515625 C 77.578125 227.558594 77.804688 226.585938 77.976562 225.601562 C 78.148438 224.621094 78.261719 223.628906 78.320312 222.632812 C 78.378906 221.636719 78.382812 220.640625 78.332031 219.640625 C 78.277344 218.644531 78.167969 217.652344 78.003906 216.667969 Z M 78.003906 216.667969 " fill-opacity="1" fill-rule="nonzero"/><g clip-path="url(#58c4aad2ed)"><path fill="#3368dd" d="M 65.972656 162.15625 C 66.238281 162.15625 66.5 162.183594 66.757812 162.238281 C 67.019531 162.292969 67.269531 162.375 67.511719 162.484375 C 67.753906 162.589844 67.984375 162.722656 68.199219 162.878906 C 68.414062 163.03125 68.609375 163.207031 68.785156 163.40625 C 68.964844 163.601562 69.121094 163.8125 69.253906 164.042969 C 69.386719 164.273438 69.496094 164.511719 69.578125 164.765625 C 69.664062 165.015625 69.71875 165.273438 69.75 165.539062 C 69.777344 165.800781 69.777344 166.066406 69.753906 166.328125 C 69.566406 168.304688 67.792969 169.753906 65.808594 169.753906 L 65.429688 169.753906 C 65.066406 169.753906 64.714844 169.824219 64.378906 169.964844 C 64.042969 170.105469 63.746094 170.300781 63.488281 170.558594 C 63.234375 170.816406 63.035156 171.113281 62.894531 171.449219 C 62.757812 171.785156 62.6875 172.132812 62.6875 172.496094 L 62.6875 186.453125 C 62.6875 187.011719 62.847656 187.527344 63.164062 187.988281 C 63.480469 188.453125 63.898438 188.789062 64.421875 188.992188 C 65.332031 189.355469 66.226562 189.753906 67.101562 190.191406 C 67.976562 190.628906 68.832031 191.105469 69.664062 191.617188 C 70.5 192.128906 71.3125 192.675781 72.097656 193.257812 C 72.886719 193.839844 73.644531 194.453125 74.378906 195.101562 C 75.113281 195.746094 75.820312 196.425781 76.492188 197.132812 C 77.167969 197.84375 77.8125 198.578125 78.425781 199.34375 C 79.035156 200.105469 79.613281 200.894531 80.15625 201.710938 C 80.703125 202.523438 81.207031 203.359375 81.679688 204.21875 C 82.152344 205.074219 82.585938 205.953125 82.980469 206.847656 C 83.375 207.742188 83.730469 208.652344 84.050781 209.578125 C 84.367188 210.503906 84.640625 211.445312 84.878906 212.394531 C 85.113281 213.34375 85.308594 214.300781 85.460938 215.269531 C 85.613281 216.234375 85.722656 217.207031 85.792969 218.183594 C 85.863281 219.160156 85.890625 220.136719 85.875 221.117188 C 85.859375 222.09375 85.800781 223.070312 85.699219 224.042969 C 85.601562 225.019531 85.457031 225.984375 85.273438 226.945312 C 85.089844 227.910156 84.867188 228.859375 84.601562 229.800781 C 84.335938 230.746094 84.027344 231.671875 83.683594 232.589844 C 83.335938 233.503906 82.953125 234.402344 82.527344 235.285156 C 82.105469 236.167969 81.644531 237.03125 81.144531 237.871094 C 80.644531 238.714844 80.113281 239.535156 79.542969 240.332031 C 78.972656 241.125 78.371094 241.898438 77.734375 242.640625 C 77.101562 243.386719 76.433594 244.101562 75.734375 244.789062 C 75.039062 245.472656 74.3125 246.128906 73.558594 246.753906 C 72.804688 247.375 72.023438 247.96875 71.21875 248.523438 C 70.414062 249.078125 69.585938 249.601562 68.734375 250.085938 C 67.886719 250.570312 67.015625 251.015625 66.125 251.425781 C 65.238281 251.835938 64.332031 252.207031 63.410156 252.539062 C 62.492188 252.871094 61.558594 253.160156 60.609375 253.414062 C 59.664062 253.664062 58.710938 253.871094 57.746094 254.042969 C 56.78125 254.210938 55.8125 254.335938 54.835938 254.421875 C 53.863281 254.503906 52.882812 254.546875 51.90625 254.546875 C 51.457031 254.546875 51.003906 254.539062 50.550781 254.519531 C 33.105469 253.84375 18.84375 239.746094 17.976562 222.308594 C 17.886719 220.542969 17.933594 218.785156 18.117188 217.03125 C 18.300781 215.273438 18.621094 213.542969 19.074219 211.839844 C 19.53125 210.132812 20.113281 208.472656 20.824219 206.859375 C 21.539062 205.242188 22.371094 203.695312 23.324219 202.210938 C 24.28125 200.722656 25.34375 199.324219 26.515625 198.003906 C 27.6875 196.683594 28.957031 195.464844 30.320312 194.34375 C 31.683594 193.222656 33.125 192.210938 34.644531 191.316406 C 36.164062 190.417969 37.746094 189.644531 39.386719 188.996094 C 39.910156 188.789062 40.328125 188.453125 40.648438 187.992188 C 40.964844 187.527344 41.125 187.011719 41.125 186.449219 L 41.125 172.496094 C 41.125 172.132812 41.054688 171.785156 40.917969 171.449219 C 40.777344 171.113281 40.578125 170.816406 40.320312 170.558594 C 40.066406 170.300781 39.769531 170.105469 39.433594 169.964844 C 39.097656 169.824219 38.746094 169.753906 38.382812 169.753906 C 38.117188 169.753906 37.855469 169.726562 37.597656 169.671875 C 37.335938 169.617188 37.085938 169.539062 36.84375 169.429688 C 36.601562 169.320312 36.371094 169.191406 36.15625 169.035156 C 35.941406 168.878906 35.746094 168.703125 35.566406 168.507812 C 35.390625 168.3125 35.234375 168.097656 35.101562 167.867188 C 34.964844 167.640625 34.859375 167.398438 34.773438 167.148438 C 34.691406 166.894531 34.636719 166.636719 34.605469 166.375 C 34.578125 166.109375 34.574219 165.847656 34.601562 165.582031 C 34.789062 163.609375 36.5625 162.15625 38.546875 162.15625 L 65.972656 162.15625 M 65.972656 157.824219 L 38.546875 157.824219 C 34.308594 157.824219 30.679688 161.050781 30.289062 165.171875 C 30.238281 165.667969 30.238281 166.167969 30.28125 166.664062 C 30.324219 167.164062 30.414062 167.652344 30.546875 168.132812 C 30.679688 168.613281 30.859375 169.078125 31.078125 169.527344 C 31.296875 169.976562 31.554688 170.402344 31.855469 170.804688 C 32.152344 171.203125 32.484375 171.574219 32.851562 171.914062 C 33.214844 172.253906 33.609375 172.558594 34.03125 172.828125 C 34.453125 173.09375 34.898438 173.320312 35.363281 173.503906 C 35.824219 173.691406 36.300781 173.832031 36.792969 173.929688 L 36.792969 185.378906 C 35.007812 186.148438 33.289062 187.046875 31.640625 188.074219 C 29.988281 189.105469 28.425781 190.253906 26.953125 191.519531 C 25.476562 192.789062 24.109375 194.160156 22.839844 195.632812 C 21.574219 197.109375 20.429688 198.671875 19.398438 200.324219 C 18.371094 201.972656 17.472656 203.691406 16.707031 205.480469 C 15.941406 207.265625 15.3125 209.101562 14.824219 210.984375 C 14.339844 212.863281 13.996094 214.773438 13.800781 216.707031 C 13.601562 218.640625 13.550781 220.582031 13.648438 222.523438 C 14.625 242.128906 30.761719 258.085938 50.382812 258.847656 C 50.890625 258.867188 51.402344 258.878906 51.90625 258.878906 C 73.027344 258.878906 90.210938 241.695312 90.210938 220.574219 C 90.210938 218.710938 90.074219 216.859375 89.804688 215.015625 C 89.535156 213.171875 89.128906 211.359375 88.597656 209.574219 C 88.0625 207.789062 87.398438 206.054688 86.609375 204.367188 C 85.820312 202.679688 84.914062 201.054688 83.890625 199.5 C 82.867188 197.945312 81.734375 196.472656 80.492188 195.082031 C 79.253906 193.691406 77.917969 192.398438 76.492188 191.203125 C 75.0625 190.007812 73.554688 188.921875 71.96875 187.945312 C 70.378906 186.96875 68.730469 186.113281 67.019531 185.378906 L 67.019531 174 C 70.71875 173.457031 73.710938 170.460938 74.066406 166.742188 C 74.121094 166.175781 74.117188 165.613281 74.050781 165.050781 C 73.988281 164.484375 73.867188 163.933594 73.691406 163.394531 C 73.511719 162.859375 73.277344 162.34375 72.992188 161.855469 C 72.707031 161.363281 72.375 160.910156 71.992188 160.492188 C 71.609375 160.070312 71.191406 159.695312 70.730469 159.363281 C 70.269531 159.03125 69.78125 158.75 69.265625 158.519531 C 68.746094 158.292969 68.207031 158.117188 67.652344 158 C 67.097656 157.882812 66.539062 157.824219 65.972656 157.824219 Z M 65.972656 157.824219 " fill-opacity="1" fill-rule="nonzero"/></g><g clip-path="url(#08b9924113)"><path fill="#3368dd" d="M 48.285156 124.203125 L 43.632812 124.203125 C 42.492188 124.203125 41.5625 123.273438 41.5625 122.132812 L 41.5625 117.484375 C 41.5625 116.34375 42.492188 115.414062 43.632812 115.414062 L 48.285156 115.414062 C 49.425781 115.414062 50.351562 116.34375 50.351562 117.484375 L 50.351562 122.136719 C 50.351562 123.273438 49.425781 124.203125 48.285156 124.203125 Z M 43.632812 115.886719 C 42.75 115.886719 42.039062 116.601562 42.039062 117.480469 L 42.039062 122.132812 C 42.039062 123.015625 42.75 123.730469 43.632812 123.730469 L 48.285156 123.730469 C 49.164062 123.730469 49.878906 123.015625 49.878906 122.132812 L 49.878906 117.484375 C 49.878906 116.601562 49.164062 115.886719 48.285156 115.886719 Z M 43.632812 115.886719 " fill-opacity="1" fill-rule="nonzero"/></g><path fill="#3368dd" d="M 63.613281 148.679688 L 55.015625 148.679688 C 53.023438 148.679688 51.398438 147.054688 51.398438 145.0625 L 51.398438 136.464844 C 51.398438 134.46875 53.023438 132.84375 55.015625 132.84375 L 63.613281 132.84375 C 65.609375 132.84375 67.230469 134.46875 67.230469 136.464844 L 67.230469 145.0625 C 67.230469 147.054688 65.609375 148.679688 63.613281 148.679688 Z M 55.015625 133.316406 C 53.28125 133.316406 51.871094 134.730469 51.871094 136.464844 L 51.871094 145.0625 C 51.871094 146.792969 53.28125 148.207031 55.015625 148.207031 L 63.613281 148.207031 C 65.347656 148.207031 66.761719 146.796875 66.761719 145.0625 L 66.761719 136.464844 C 66.761719 134.730469 65.347656 133.316406 63.613281 133.316406 Z M 55.015625 133.316406 " fill-opacity="1" fill-rule="nonzero"/><g clip-path="url(#b0b0fbdeca)"><path fill="#3368dd" d="M 78.992188 130.519531 L 71.917969 130.519531 C 70.253906 130.519531 68.902344 129.167969 68.902344 127.503906 L 68.902344 120.429688 C 68.902344 118.765625 70.253906 117.410156 71.917969 117.410156 L 78.992188 117.410156 C 80.65625 117.410156 82.011719 118.765625 82.011719 120.429688 L 82.011719 127.503906 C 82.011719 129.167969 80.65625 130.519531 78.992188 130.519531 Z M 71.917969 117.882812 C 70.515625 117.882812 69.375 119.027344 69.375 120.429688 L 69.375 127.503906 C 69.375 128.90625 70.515625 130.050781 71.917969 130.050781 L 78.992188 130.050781 C 80.398438 130.050781 81.539062 128.90625 81.539062 127.503906 L 81.539062 120.429688 C 81.539062 119.027344 80.398438 117.886719 78.992188 117.886719 L 71.917969 117.886719 Z M 71.917969 117.882812 " fill-opacity="1" fill-rule="nonzero"/></g><path fill="#3368dd" d="M 45.722656 138.679688 L 42.679688 138.679688 C 41.886719 138.679688 41.246094 138.039062 41.246094 137.246094 L 41.246094 134.203125 C 41.246094 133.410156 41.886719 132.769531 42.679688 132.769531 L 45.722656 132.769531 C 46.515625 132.769531 47.160156 133.410156 47.160156 134.203125 L 47.160156 137.246094 C 47.160156 138.039062 46.515625 138.679688 45.722656 138.679688 Z M 42.679688 133.242188 C 42.148438 133.242188 41.71875 133.671875 41.71875 134.203125 L 41.71875 137.25 C 41.71875 137.777344 42.148438 138.210938 42.679688 138.210938 L 45.722656 138.210938 C 46.253906 138.210938 46.6875 137.777344 46.6875 137.25 L 46.6875 134.203125 C 46.6875 133.671875 46.253906 133.242188 45.722656 133.242188 Z M 42.679688 133.242188 " fill-opacity="1" fill-rule="nonzero"/><g clip-path="url(#49c5a4a2dd)"><path fill="#3368dd" d="M 39.652344 154.753906 L 34.996094 154.753906 C 33.855469 154.753906 32.929688 153.824219 32.929688 152.683594 L 32.929688 148.03125 C 32.929688 146.890625 33.855469 145.964844 34.996094 145.964844 L 39.652344 145.964844 C 40.792969 145.964844 41.71875 146.890625 41.71875 148.03125 L 41.71875 152.683594 C 41.71875 153.824219 40.792969 154.753906 39.652344 154.753906 Z M 34.996094 146.4375 C 34.117188 146.4375 33.402344 147.152344 33.402344 148.03125 L 33.402344 152.683594 C 33.402344 153.5625 34.117188 154.277344 34.996094 154.277344 L 39.652344 154.277344 C 40.53125 154.277344 41.246094 153.5625 41.246094 152.683594 L 41.246094 148.03125 C 41.246094 147.152344 40.53125 146.4375 39.652344 146.4375 Z M 34.996094 146.4375 " fill-opacity="1" fill-rule="nonzero"/></g><g clip-path="url(#f4bbb8c6e0)"><path fill="#3368dd" d="M 27.253906 143.171875 L 24.210938 143.171875 C 23.417969 143.171875 22.777344 142.527344 22.777344 141.734375 L 22.777344 138.691406 C 22.777344 137.898438 23.417969 137.257812 24.210938 137.257812 L 27.253906 137.257812 C 28.046875 137.257812 28.6875 137.898438 28.6875 138.691406 L 28.6875 141.734375 C 28.6875 142.527344 28.046875 143.171875 27.253906 143.171875 Z M 24.210938 137.730469 C 23.679688 137.730469 23.25 138.160156 23.25 138.691406 L 23.25 141.734375 C 23.25 142.265625 23.679688 142.699219 24.210938 142.699219 L 27.253906 142.699219 C 27.785156 142.699219 28.21875 142.265625 28.21875 141.734375 L 28.21875 138.691406 C 28.21875 138.160156 27.785156 137.730469 27.253906 137.730469 Z M 24.210938 137.730469 " fill-opacity="1" fill-rule="nonzero"/></g><g fill="#3368dd" fill-opacity="1"><g transform="translate(96.894101, 237.367998)"><g><path d="M 3.21875 0 L 3.21875 -37.203125 L 28.53125 -37.203125 L 28.53125 -30.8125 L 10.859375 -30.8125 L 10.859375 -21.921875 L 27.1875 -21.921875 L 27.1875 -15.65625 L 10.859375 -15.65625 L 10.859375 -6.390625 L 28.5625 -6.390625 L 28.5625 0 Z M 3.21875 0 "/></g></g></g><g fill="#3368dd" fill-opacity="1"><g transform="translate(132.033732, 237.367998)"><g><path d="M 2.84375 0 L 2.84375 -5.515625 L 16.125 -17.71875 C 17.238281 -18.800781 18.195312 -19.78125 19 -20.65625 C 19.800781 -21.53125 20.414062 -22.40625 20.84375 -23.28125 C 21.28125 -24.15625 21.5 -25.109375 21.5 -26.140625 C 21.5 -27.265625 21.25 -28.234375 20.75 -29.046875 C 20.25 -29.867188 19.5625 -30.5 18.6875 -30.9375 C 17.8125 -31.382812 16.800781 -31.609375 15.65625 -31.609375 C 14.46875 -31.609375 13.429688 -31.359375 12.546875 -30.859375 C 11.671875 -30.367188 10.988281 -29.664062 10.5 -28.75 C 10.019531 -27.84375 9.78125 -26.753906 9.78125 -25.484375 L 2.546875 -25.484375 C 2.546875 -27.960938 3.097656 -30.117188 4.203125 -31.953125 C 5.304688 -33.785156 6.84375 -35.203125 8.8125 -36.203125 C 10.789062 -37.210938 13.085938 -37.71875 15.703125 -37.71875 C 18.316406 -37.71875 20.601562 -37.25 22.5625 -36.3125 C 24.53125 -35.375 26.0625 -34.066406 27.15625 -32.390625 C 28.257812 -30.710938 28.8125 -28.785156 28.8125 -26.609375 C 28.8125 -25.148438 28.523438 -23.734375 27.953125 -22.359375 C 27.390625 -20.992188 26.429688 -19.515625 25.078125 -17.921875 C 23.734375 -16.328125 21.878906 -14.457031 19.515625 -12.3125 L 13.375 -6.46875 L 13.375 -6.234375 L 29.234375 -6.234375 L 29.234375 0 Z M 2.84375 0 "/></g></g></g><g fill="#3368dd" fill-opacity="1"><g transform="translate(167.947109, 237.367998)"><g><path d="M 3.21875 0 L 3.21875 -37.203125 L 28.53125 -37.203125 L 28.53125 -30.8125 L 10.859375 -30.8125 L 10.859375 -21.921875 L 27.1875 -21.921875 L 27.1875 -15.65625 L 10.859375 -15.65625 L 10.859375 -6.390625 L 28.5625 -6.390625 L 28.5625 0 Z M 3.21875 0 "/></g></g></g><g fill="#3368dd" fill-opacity="1"><g transform="translate(203.08674, 237.367998)"><g/></g></g><g fill="#3368dd" fill-opacity="1"><g transform="translate(219.032467, 237.367998)"><g><path d="M 3.21875 0 L 3.21875 -37.203125 L 10.859375 -37.203125 L 10.859375 -6.390625 L 27.109375 -6.390625 L 27.109375 0 Z M 3.21875 0 "/></g></g></g><g fill="#3368dd" fill-opacity="1"><g transform="translate(251.925738, 237.367998)"><g><path d="M 1 0 L 13.8125 -37.203125 L 23.734375 -37.203125 L 36.796875 0 L 28.3125 0 L 22.375 -17.96875 C 21.65625 -20.300781 20.925781 -22.816406 20.1875 -25.515625 C 19.445312 -28.222656 18.660156 -31.203125 17.828125 -34.453125 L 19.578125 -34.453125 C 18.753906 -31.203125 17.992188 -28.21875 17.296875 -25.5 C 16.597656 -22.78125 15.898438 -20.269531 15.203125 -17.96875 L 9.390625 0 Z M 9.015625 -8.515625 L 9.015625 -14.53125 L 28.78125 -14.53125 L 28.78125 -8.515625 Z M 9.015625 -8.515625 "/></g></g></g><g fill="#3368dd" fill-opacity="1"><g transform="translate(293.80445, 237.367998)"><g><path d="M 3.21875 0 L 3.21875 -37.203125 L 18.03125 -37.203125 C 20.738281 -37.203125 23.003906 -36.789062 24.828125 -35.96875 C 26.660156 -35.15625 28.039062 -34.03125 28.96875 -32.59375 C 29.894531 -31.15625 30.359375 -29.503906 30.359375 -27.640625 C 30.359375 -26.191406 30.070312 -24.914062 29.5 -23.8125 C 28.925781 -22.71875 28.132812 -21.820312 27.125 -21.125 C 26.113281 -20.425781 24.960938 -19.925781 23.671875 -19.625 L 23.671875 -19.296875 C 25.097656 -19.234375 26.425781 -18.828125 27.65625 -18.078125 C 28.882812 -17.335938 29.878906 -16.3125 30.640625 -15 C 31.398438 -13.6875 31.78125 -12.125 31.78125 -10.3125 C 31.78125 -8.332031 31.296875 -6.5625 30.328125 -5 C 29.359375 -3.445312 27.921875 -2.222656 26.015625 -1.328125 C 24.117188 -0.441406 21.765625 0 18.953125 0 Z M 10.828125 -6.21875 L 17.546875 -6.21875 C 19.722656 -6.21875 21.332031 -6.644531 22.375 -7.5 C 23.414062 -8.351562 23.9375 -9.503906 23.9375 -10.953125 C 23.9375 -12.003906 23.6875 -12.925781 23.1875 -13.71875 C 22.6875 -14.519531 21.96875 -15.144531 21.03125 -15.59375 C 20.101562 -16.050781 19 -16.28125 17.71875 -16.28125 L 10.828125 -16.28125 Z M 10.828125 -21.625 L 17.03125 -21.625 C 18.125 -21.625 19.09375 -21.8125 19.9375 -22.1875 C 20.789062 -22.570312 21.457031 -23.125 21.9375 -23.84375 C 22.425781 -24.570312 22.671875 -25.425781 22.671875 -26.40625 C 22.671875 -27.789062 22.1875 -28.90625 21.21875 -29.75 C 20.25 -30.601562 18.882812 -31.03125 17.125 -31.03125 L 10.828125 -31.03125 Z M 10.828125 -21.625 "/></g></g></g><g fill="#1f2b5b" fill-opacity="1"><g transform="translate(101.614472, 260.33531)"><g><path d="M 1.265625 0 L 1.265625 -10.90625 L 2.640625 -10.90625 L 2.640625 -1.21875 L 7.734375 -1.21875 L 7.734375 0 Z M 1.265625 0 "/></g></g></g><g fill="#1f2b5b" fill-opacity="1"><g transform="translate(111.238369, 260.33531)"><g><path d="M 0.328125 0 L 4.3125 -10.90625 L 5.890625 -10.90625 L 9.890625 0 L 8.4375 0 L 6.140625 -6.5 C 5.992188 -6.90625 5.828125 -7.398438 5.640625 -7.984375 C 5.453125 -8.578125 5.222656 -9.335938 4.953125 -10.265625 L 5.234375 -10.265625 C 4.960938 -9.335938 4.726562 -8.570312 4.53125 -7.96875 C 4.34375 -7.375 4.1875 -6.882812 4.0625 -6.5 L 1.78125 0 Z M 2.34375 -3.046875 L 2.34375 -4.25 L 7.890625 -4.25 L 7.890625 -3.046875 Z M 2.34375 -3.046875 "/></g></g></g><g fill="#1f2b5b" fill-opacity="1"><g transform="translate(122.707969, 260.33531)"><g><path d="M 1.265625 0 L 1.265625 -10.90625 L 5.15625 -10.90625 C 5.90625 -10.90625 6.53125 -10.773438 7.03125 -10.515625 C 7.53125 -10.265625 7.90625 -9.921875 8.15625 -9.484375 C 8.414062 -9.054688 8.546875 -8.566406 8.546875 -8.015625 C 8.546875 -7.554688 8.460938 -7.175781 8.296875 -6.875 C 8.140625 -6.570312 7.925781 -6.328125 7.65625 -6.140625 C 7.382812 -5.953125 7.082031 -5.8125 6.75 -5.71875 L 6.75 -5.625 C 7.113281 -5.59375 7.460938 -5.46875 7.796875 -5.25 C 8.140625 -5.039062 8.421875 -4.742188 8.640625 -4.359375 C 8.859375 -3.972656 8.96875 -3.5 8.96875 -2.9375 C 8.96875 -2.375 8.835938 -1.867188 8.578125 -1.421875 C 8.328125 -0.984375 7.925781 -0.632812 7.375 -0.375 C 6.832031 -0.125 6.128906 0 5.265625 0 Z M 2.640625 -1.21875 L 5.234375 -1.21875 C 6.078125 -1.21875 6.6875 -1.378906 7.0625 -1.703125 C 7.4375 -2.023438 7.625 -2.4375 7.625 -2.9375 C 7.625 -3.3125 7.53125 -3.648438 7.34375 -3.953125 C 7.15625 -4.265625 6.890625 -4.507812 6.546875 -4.6875 C 6.203125 -4.863281 5.785156 -4.953125 5.296875 -4.953125 L 2.640625 -4.953125 Z M 2.640625 -6.125 L 5.109375 -6.125 C 5.515625 -6.125 5.875 -6.195312 6.1875 -6.34375 C 6.507812 -6.5 6.757812 -6.710938 6.9375 -6.984375 C 7.125 -7.265625 7.21875 -7.59375 7.21875 -7.96875 C 7.21875 -8.46875 7.046875 -8.878906 6.703125 -9.203125 C 6.359375 -9.535156 5.835938 -9.703125 5.140625 -9.703125 L 2.640625 -9.703125 Z M 2.640625 -6.125 "/></g></g></g><g fill="#1f2b5b" fill-opacity="1"><g transform="translate(133.716143, 260.33531)"><g><path d="M 5.71875 0.15625 C 4.78125 0.15625 3.941406 -0.0703125 3.203125 -0.53125 C 2.472656 -0.988281 1.894531 -1.640625 1.46875 -2.484375 C 1.050781 -3.328125 0.84375 -4.316406 0.84375 -5.453125 C 0.84375 -6.585938 1.050781 -7.578125 1.46875 -8.421875 C 1.894531 -9.265625 2.472656 -9.914062 3.203125 -10.375 C 3.941406 -10.832031 4.78125 -11.0625 5.71875 -11.0625 C 6.65625 -11.0625 7.488281 -10.832031 8.21875 -10.375 C 8.945312 -9.914062 9.519531 -9.265625 9.9375 -8.421875 C 10.363281 -7.578125 10.578125 -6.585938 10.578125 -5.453125 C 10.578125 -4.316406 10.363281 -3.328125 9.9375 -2.484375 C 9.519531 -1.640625 8.945312 -0.988281 8.21875 -0.53125 C 7.488281 -0.0703125 6.65625 0.15625 5.71875 0.15625 Z M 5.71875 -1.125 C 6.363281 -1.125 6.953125 -1.285156 7.484375 -1.609375 C 8.015625 -1.941406 8.4375 -2.429688 8.75 -3.078125 C 9.070312 -3.722656 9.234375 -4.515625 9.234375 -5.453125 C 9.234375 -6.390625 9.070312 -7.179688 8.75 -7.828125 C 8.4375 -8.472656 8.015625 -8.960938 7.484375 -9.296875 C 6.953125 -9.628906 6.363281 -9.796875 5.71875 -9.796875 C 5.0625 -9.796875 4.46875 -9.628906 3.9375 -9.296875 C 3.40625 -8.960938 2.976562 -8.472656 2.65625 -7.828125 C 2.34375 -7.179688 2.1875 -6.390625 2.1875 -5.453125 C 2.1875 -4.515625 2.34375 -3.722656 2.65625 -3.078125 C 2.976562 -2.441406 3.40625 -1.957031 3.9375 -1.625 C 4.46875 -1.289062 5.0625 -1.125 5.71875 -1.125 Z M 5.71875 -1.125 "/></g></g></g><g fill="#1f2b5b" fill-opacity="1"><g transform="translate(146.379591, 260.33531)"><g><path d="M 1.265625 0 L 1.265625 -10.90625 L 5.0625 -10.90625 C 5.894531 -10.90625 6.585938 -10.765625 7.140625 -10.484375 C 7.691406 -10.203125 8.101562 -9.804688 8.375 -9.296875 C 8.65625 -8.796875 8.796875 -8.21875 8.796875 -7.5625 C 8.796875 -6.894531 8.65625 -6.3125 8.375 -5.8125 C 8.09375 -5.320312 7.675781 -4.9375 7.125 -4.65625 C 6.570312 -4.382812 5.878906 -4.25 5.046875 -4.25 L 2.03125 -4.25 L 2.03125 -5.46875 L 5.015625 -5.46875 C 5.578125 -5.46875 6.035156 -5.550781 6.390625 -5.71875 C 6.742188 -5.894531 7.003906 -6.140625 7.171875 -6.453125 C 7.335938 -6.765625 7.421875 -7.132812 7.421875 -7.5625 C 7.421875 -7.988281 7.335938 -8.363281 7.171875 -8.6875 C 7.003906 -9.007812 6.742188 -9.257812 6.390625 -9.4375 C 6.035156 -9.613281 5.570312 -9.703125 5 -9.703125 L 2.640625 -9.703125 L 2.640625 0 Z M 7.546875 0 L 4.921875 -4.921875 L 6.46875 -4.921875 L 9.140625 0 Z M 7.546875 0 "/></g></g></g><g fill="#1f2b5b" fill-opacity="1"><g transform="translate(157.241281, 260.33531)"><g><path d="M 0.328125 0 L 4.3125 -10.90625 L 5.890625 -10.90625 L 9.890625 0 L 8.4375 0 L 6.140625 -6.5 C 5.992188 -6.90625 5.828125 -7.398438 5.640625 -7.984375 C 5.453125 -8.578125 5.222656 -9.335938 4.953125 -10.265625 L 5.234375 -10.265625 C 4.960938 -9.335938 4.726562 -8.570312 4.53125 -7.96875 C 4.34375 -7.375 4.1875 -6.882812 4.0625 -6.5 L 1.78125 0 Z M 2.34375 -3.046875 L 2.34375 -4.25 L 7.890625 -4.25 L 7.890625 -3.046875 Z M 2.34375 -3.046875 "/></g></g></g><g fill="#1f2b5b" fill-opacity="1"><g transform="translate(168.710881, 260.33531)"><g><path d="M 0.640625 -9.703125 L 0.640625 -10.90625 L 8.921875 -10.90625 L 8.921875 -9.703125 L 5.484375 -9.703125 L 5.484375 0 L 4.109375 0 L 4.109375 -9.703125 Z M 0.640625 -9.703125 "/></g></g></g><g fill="#1f2b5b" fill-opacity="1"><g transform="translate(179.521301, 260.33531)"><g><path d="M 5.71875 0.15625 C 4.78125 0.15625 3.941406 -0.0703125 3.203125 -0.53125 C 2.472656 -0.988281 1.894531 -1.640625 1.46875 -2.484375 C 1.050781 -3.328125 0.84375 -4.316406 0.84375 -5.453125 C 0.84375 -6.585938 1.050781 -7.578125 1.46875 -8.421875 C 1.894531 -9.265625 2.472656 -9.914062 3.203125 -10.375 C 3.941406 -10.832031 4.78125 -11.0625 5.71875 -11.0625 C 6.65625 -11.0625 7.488281 -10.832031 8.21875 -10.375 C 8.945312 -9.914062 9.519531 -9.265625 9.9375 -8.421875 C 10.363281 -7.578125 10.578125 -6.585938 10.578125 -5.453125 C 10.578125 -4.316406 10.363281 -3.328125 9.9375 -2.484375 C 9.519531 -1.640625 8.945312 -0.988281 8.21875 -0.53125 C 7.488281 -0.0703125 6.65625 0.15625 5.71875 0.15625 Z M 5.71875 -1.125 C 6.363281 -1.125 6.953125 -1.285156 7.484375 -1.609375 C 8.015625 -1.941406 8.4375 -2.429688 8.75 -3.078125 C 9.070312 -3.722656 9.234375 -4.515625 9.234375 -5.453125 C 9.234375 -6.390625 9.070312 -7.179688 8.75 -7.828125 C 8.4375 -8.472656 8.015625 -8.960938 7.484375 -9.296875 C 6.953125 -9.628906 6.363281 -9.796875 5.71875 -9.796875 C 5.0625 -9.796875 4.46875 -9.628906 3.9375 -9.296875 C 3.40625 -8.960938 2.976562 -8.472656 2.65625 -7.828125 C 2.34375 -7.179688 2.1875 -6.390625 2.1875 -5.453125 C 2.1875 -4.515625 2.34375 -3.722656 2.65625 -3.078125 C 2.976562 -2.441406 3.40625 -1.957031 3.9375 -1.625 C 4.46875 -1.289062 5.0625 -1.125 5.71875 -1.125 Z M 5.140625 -11.96875 L 6.171875 -14.125 L 7.640625 -14.125 L 6.21875 -11.96875 Z M 5.140625 -11.96875 "/></g></g></g><g fill="#1f2b5b" fill-opacity="1"><g transform="translate(192.184749, 260.33531)"><g><path d="M 1.265625 0 L 1.265625 -10.90625 L 5.0625 -10.90625 C 5.894531 -10.90625 6.585938 -10.765625 7.140625 -10.484375 C 7.691406 -10.203125 8.101562 -9.804688 8.375 -9.296875 C 8.65625 -8.796875 8.796875 -8.21875 8.796875 -7.5625 C 8.796875 -6.894531 8.65625 -6.3125 8.375 -5.8125 C 8.09375 -5.320312 7.675781 -4.9375 7.125 -4.65625 C 6.570312 -4.382812 5.878906 -4.25 5.046875 -4.25 L 2.03125 -4.25 L 2.03125 -5.46875 L 5.015625 -5.46875 C 5.578125 -5.46875 6.035156 -5.550781 6.390625 -5.71875 C 6.742188 -5.894531 7.003906 -6.140625 7.171875 -6.453125 C 7.335938 -6.765625 7.421875 -7.132812 7.421875 -7.5625 C 7.421875 -7.988281 7.335938 -8.363281 7.171875 -8.6875 C 7.003906 -9.007812 6.742188 -9.257812 6.390625 -9.4375 C 6.035156 -9.613281 5.570312 -9.703125 5 -9.703125 L 2.640625 -9.703125 L 2.640625 0 Z M 7.546875 0 L 4.921875 -4.921875 L 6.46875 -4.921875 L 9.140625 0 Z M 7.546875 0 "/></g></g></g><g fill="#1f2b5b" fill-opacity="1"><g transform="translate(203.046438, 260.33531)"><g><path d="M 2.640625 -10.90625 L 2.640625 0 L 1.265625 0 L 1.265625 -10.90625 Z M 2.640625 -10.90625 "/></g></g></g><g fill="#1f2b5b" fill-opacity="1"><g transform="translate(208.202562, 260.33531)"><g><path d="M 5.71875 0.15625 C 4.78125 0.15625 3.941406 -0.0703125 3.203125 -0.53125 C 2.472656 -0.988281 1.894531 -1.640625 1.46875 -2.484375 C 1.050781 -3.328125 0.84375 -4.316406 0.84375 -5.453125 C 0.84375 -6.585938 1.050781 -7.578125 1.46875 -8.421875 C 1.894531 -9.265625 2.472656 -9.914062 3.203125 -10.375 C 3.941406 -10.832031 4.78125 -11.0625 5.71875 -11.0625 C 6.65625 -11.0625 7.488281 -10.832031 8.21875 -10.375 C 8.945312 -9.914062 9.519531 -9.265625 9.9375 -8.421875 C 10.363281 -7.578125 10.578125 -6.585938 10.578125 -5.453125 C 10.578125 -4.316406 10.363281 -3.328125 9.9375 -2.484375 C 9.519531 -1.640625 8.945312 -0.988281 8.21875 -0.53125 C 7.488281 -0.0703125 6.65625 0.15625 5.71875 0.15625 Z M 5.71875 -1.125 C 6.363281 -1.125 6.953125 -1.285156 7.484375 -1.609375 C 8.015625 -1.941406 8.4375 -2.429688 8.75 -3.078125 C 9.070312 -3.722656 9.234375 -4.515625 9.234375 -5.453125 C 9.234375 -6.390625 9.070312 -7.179688 8.75 -7.828125 C 8.4375 -8.472656 8.015625 -8.960938 7.484375 -9.296875 C 6.953125 -9.628906 6.363281 -9.796875 5.71875 -9.796875 C 5.0625 -9.796875 4.46875 -9.628906 3.9375 -9.296875 C 3.40625 -8.960938 2.976562 -8.472656 2.65625 -7.828125 C 2.34375 -7.179688 2.1875 -6.390625 2.1875 -5.453125 C 2.1875 -4.515625 2.34375 -3.722656 2.65625 -3.078125 C 2.976562 -2.441406 3.40625 -1.957031 3.9375 -1.625 C 4.46875 -1.289062 5.0625 -1.125 5.71875 -1.125 Z M 5.71875 -1.125 "/></g></g></g><g fill="#1f2b5b" fill-opacity="1"><g transform="translate(220.86601, 260.33531)"><g/></g></g><g fill="#1f2b5b" fill-opacity="1"><g transform="translate(226.227212, 260.33531)"><g><path d="M 4.671875 0 L 2.03125 0 L 2.03125 -1.21875 L 4.578125 -1.21875 C 5.460938 -1.21875 6.195312 -1.382812 6.78125 -1.71875 C 7.375 -2.0625 7.8125 -2.550781 8.09375 -3.1875 C 8.382812 -3.832031 8.53125 -4.597656 8.53125 -5.484375 C 8.53125 -6.359375 8.382812 -7.109375 8.09375 -7.734375 C 7.8125 -8.359375 7.390625 -8.84375 6.828125 -9.1875 C 6.265625 -9.53125 5.554688 -9.703125 4.703125 -9.703125 L 1.96875 -9.703125 L 1.96875 -10.90625 L 4.8125 -10.90625 C 5.875 -10.90625 6.78125 -10.6875 7.53125 -10.25 C 8.289062 -9.820312 8.867188 -9.203125 9.265625 -8.390625 C 9.671875 -7.578125 9.875 -6.609375 9.875 -5.484375 C 9.875 -4.335938 9.671875 -3.351562 9.265625 -2.53125 C 8.859375 -1.71875 8.265625 -1.09375 7.484375 -0.65625 C 6.710938 -0.21875 5.773438 0 4.671875 0 Z M 2.640625 -10.90625 L 2.640625 0 L 1.265625 0 L 1.265625 -10.90625 Z M 2.640625 -10.90625 "/></g></g></g><g fill="#1f2b5b" fill-opacity="1"><g transform="translate(238.187534, 260.33531)"><g><path d="M 1.265625 0 L 1.265625 -10.90625 L 8.015625 -10.90625 L 8.015625 -9.703125 L 2.640625 -9.703125 L 2.640625 -6.140625 L 7.640625 -6.140625 L 7.640625 -4.921875 L 2.640625 -4.921875 L 2.640625 -1.21875 L 8.0625 -1.21875 L 8.0625 0 Z M 1.265625 0 "/></g></g></g><g fill="#1f2b5b" fill-opacity="1"><g transform="translate(248.375396, 260.33531)"><g/></g></g><g fill="#1f2b5b" fill-opacity="1"><g transform="translate(253.736598, 260.33531)"><g><path d="M 0.328125 0 L 4.3125 -10.90625 L 5.890625 -10.90625 L 9.890625 0 L 8.4375 0 L 6.140625 -6.5 C 5.992188 -6.90625 5.828125 -7.398438 5.640625 -7.984375 C 5.453125 -8.578125 5.222656 -9.335938 4.953125 -10.265625 L 5.234375 -10.265625 C 4.960938 -9.335938 4.726562 -8.570312 4.53125 -7.96875 C 4.34375 -7.375 4.1875 -6.882812 4.0625 -6.5 L 1.78125 0 Z M 2.34375 -3.046875 L 2.34375 -4.25 L 7.890625 -4.25 L 7.890625 -3.046875 Z M 2.34375 -3.046875 "/></g></g></g><g fill="#1f2b5b" fill-opacity="1"><g transform="translate(265.206198, 260.33531)"><g><path d="M 1.265625 0 L 1.265625 -10.90625 L 2.875 -10.90625 L 7.328125 -3.90625 C 7.441406 -3.726562 7.578125 -3.5 7.734375 -3.21875 C 7.898438 -2.945312 8.078125 -2.640625 8.265625 -2.296875 C 8.453125 -1.960938 8.632812 -1.601562 8.8125 -1.21875 L 8.640625 -1.171875 C 8.597656 -1.554688 8.566406 -1.9375 8.546875 -2.3125 C 8.535156 -2.6875 8.523438 -3.03125 8.515625 -3.34375 C 8.515625 -3.664062 8.515625 -3.929688 8.515625 -4.140625 L 8.515625 -10.90625 L 9.890625 -10.90625 L 9.890625 0 L 8.265625 0 L 4.296875 -6.234375 C 4.128906 -6.492188 3.953125 -6.773438 3.765625 -7.078125 C 3.585938 -7.378906 3.378906 -7.738281 3.140625 -8.15625 C 2.910156 -8.570312 2.628906 -9.070312 2.296875 -9.65625 L 2.53125 -9.734375 C 2.550781 -9.191406 2.566406 -8.691406 2.578125 -8.234375 C 2.597656 -7.773438 2.613281 -7.378906 2.625 -7.046875 C 2.632812 -6.710938 2.640625 -6.445312 2.640625 -6.25 L 2.640625 0 Z M 1.265625 0 "/></g></g></g><g fill="#1f2b5b" fill-opacity="1"><g transform="translate(277.605974, 260.33531)"><g><path d="M 0.328125 0 L 4.3125 -10.90625 L 5.890625 -10.90625 L 9.890625 0 L 8.4375 0 L 6.140625 -6.5 C 5.992188 -6.90625 5.828125 -7.398438 5.640625 -7.984375 C 5.453125 -8.578125 5.222656 -9.335938 4.953125 -10.265625 L 5.234375 -10.265625 C 4.960938 -9.335938 4.726562 -8.570312 4.53125 -7.96875 C 4.34375 -7.375 4.1875 -6.882812 4.0625 -6.5 L 1.78125 0 Z M 2.34375 -3.046875 L 2.34375 -4.25 L 7.890625 -4.25 L 7.890625 -3.046875 Z M 4.53125 -11.96875 L 5.5625 -14.125 L 7.03125 -14.125 L 5.609375 -11.96875 Z M 4.53125 -11.96875 "/></g></g></g><g fill="#1f2b5b" fill-opacity="1"><g transform="translate(289.075574, 260.33531)"><g><path d="M 1.265625 0 L 1.265625 -10.90625 L 2.640625 -10.90625 L 2.640625 -1.21875 L 7.734375 -1.21875 L 7.734375 0 Z M 1.265625 0 "/></g></g></g><g fill="#1f2b5b" fill-opacity="1"><g transform="translate(298.699482, 260.33531)"><g><path d="M 2.640625 -10.90625 L 2.640625 0 L 1.265625 0 L 1.265625 -10.90625 Z M 2.640625 -10.90625 "/></g></g></g><g fill="#1f2b5b" fill-opacity="1"><g transform="translate(303.855594, 260.33531)"><g><path d="M 4.78125 0.1875 C 3.988281 0.1875 3.296875 0.0546875 2.703125 -0.203125 C 2.117188 -0.472656 1.660156 -0.84375 1.328125 -1.3125 C 1.003906 -1.789062 0.828125 -2.351562 0.796875 -3 L 2.203125 -3 C 2.222656 -2.5625 2.347656 -2.195312 2.578125 -1.90625 C 2.816406 -1.625 3.128906 -1.410156 3.515625 -1.265625 C 3.898438 -1.117188 4.320312 -1.046875 4.78125 -1.046875 C 5.28125 -1.046875 5.726562 -1.125 6.125 -1.28125 C 6.519531 -1.445312 6.828125 -1.675781 7.046875 -1.96875 C 7.273438 -2.257812 7.390625 -2.597656 7.390625 -2.984375 C 7.390625 -3.328125 7.296875 -3.609375 7.109375 -3.828125 C 6.929688 -4.046875 6.675781 -4.226562 6.34375 -4.375 C 6.019531 -4.519531 5.648438 -4.648438 5.234375 -4.765625 L 3.9375 -5.125 C 3.007812 -5.382812 2.300781 -5.742188 1.8125 -6.203125 C 1.320312 -6.660156 1.078125 -7.253906 1.078125 -7.984375 C 1.078125 -8.597656 1.238281 -9.132812 1.5625 -9.59375 C 1.894531 -10.0625 2.34375 -10.421875 2.90625 -10.671875 C 3.46875 -10.929688 4.109375 -11.0625 4.828125 -11.0625 C 5.554688 -11.0625 6.195312 -10.929688 6.75 -10.671875 C 7.300781 -10.421875 7.734375 -10.066406 8.046875 -9.609375 C 8.367188 -9.148438 8.539062 -8.632812 8.5625 -8.0625 L 7.21875 -8.0625 C 7.15625 -8.625 6.898438 -9.0625 6.453125 -9.375 C 6.015625 -9.6875 5.457031 -9.84375 4.78125 -9.84375 C 4.3125 -9.84375 3.898438 -9.765625 3.546875 -9.609375 C 3.191406 -9.453125 2.914062 -9.238281 2.71875 -8.96875 C 2.519531 -8.695312 2.421875 -8.390625 2.421875 -8.046875 C 2.421875 -7.691406 2.523438 -7.398438 2.734375 -7.171875 C 2.953125 -6.941406 3.222656 -6.757812 3.546875 -6.625 C 3.878906 -6.488281 4.207031 -6.378906 4.53125 -6.296875 L 5.640625 -5.984375 C 5.992188 -5.898438 6.347656 -5.78125 6.703125 -5.625 C 7.066406 -5.476562 7.398438 -5.289062 7.703125 -5.0625 C 8.015625 -4.832031 8.265625 -4.546875 8.453125 -4.203125 C 8.648438 -3.867188 8.75 -3.460938 8.75 -2.984375 C 8.75 -2.378906 8.585938 -1.835938 8.265625 -1.359375 C 7.953125 -0.878906 7.5 -0.5 6.90625 -0.21875 C 6.320312 0.0507812 5.613281 0.1875 4.78125 0.1875 Z M 4.78125 0.1875 "/></g></g></g><g fill="#1f2b5b" fill-opacity="1"><g transform="translate(314.636706, 260.33531)"><g><path d="M 1.265625 0 L 1.265625 -10.90625 L 8.015625 -10.90625 L 8.015625 -9.703125 L 2.640625 -9.703125 L 2.640625 -6.140625 L 7.640625 -6.140625 L 7.640625 -4.921875 L 2.640625 -4.921875 L 2.640625 -1.21875 L 8.0625 -1.21875 L 8.0625 0 Z M 1.265625 0 "/></g></g></g></svg>